<svg width="1363" height="167" viewBox="0 0 1363 167" fill="none" xmlns="http://www.w3.org/2000/svg">
<rect width="1363" height="167" rx="15" fill="white"/>
<path d="M0 15C0 6.71573 6.71573 0 15 0H37V167H15C6.71573 167 0 160.284 0 152V15Z" fill="black"/>
<path d="M100.906 50.9219L93.3945 48.2383V45.0859L103.602 49.375V51.6367L100.906 50.9219ZM93.3945 53.1719L100.918 50.4297L103.602 49.7852V52.0352L93.3945 56.3242V53.1719ZM107.527 40.9375H110.504L114.887 53.4648L119.27 40.9375H122.246L116.082 58H113.691L107.527 40.9375ZM105.922 40.9375H108.887L109.426 53.1484V58H105.922V40.9375ZM120.887 40.9375H123.863V58H120.348V53.1484L120.887 40.9375ZM126.195 51.7891V51.543C126.195 50.6133 126.328 49.7578 126.594 48.9766C126.859 48.1875 127.246 47.5039 127.754 46.9258C128.262 46.3477 128.887 45.8984 129.629 45.5781C130.371 45.25 131.223 45.0859 132.184 45.0859C133.145 45.0859 134 45.25 134.75 45.5781C135.5 45.8984 136.129 46.3477 136.637 46.9258C137.152 47.5039 137.543 48.1875 137.809 48.9766C138.074 49.7578 138.207 50.6133 138.207 51.543V51.7891C138.207 52.7109 138.074 53.5664 137.809 54.3555C137.543 55.1367 137.152 55.8203 136.637 56.4062C136.129 56.9844 135.504 57.4336 134.762 57.7539C134.02 58.0742 133.168 58.2344 132.207 58.2344C131.246 58.2344 130.391 58.0742 129.641 57.7539C128.898 57.4336 128.27 56.9844 127.754 56.4062C127.246 55.8203 126.859 55.1367 126.594 54.3555C126.328 53.5664 126.195 52.7109 126.195 51.7891ZM129.57 51.543V51.7891C129.57 52.3203 129.617 52.8164 129.711 53.2773C129.805 53.7383 129.953 54.1445 130.156 54.4961C130.367 54.8398 130.641 55.1094 130.977 55.3047C131.312 55.5 131.723 55.5977 132.207 55.5977C132.676 55.5977 133.078 55.5 133.414 55.3047C133.75 55.1094 134.02 54.8398 134.223 54.4961C134.426 54.1445 134.574 53.7383 134.668 53.2773C134.77 52.8164 134.82 52.3203 134.82 51.7891V51.543C134.82 51.0273 134.77 50.543 134.668 50.0898C134.574 49.6289 134.422 49.2227 134.211 48.8711C134.008 48.5117 133.738 48.2305 133.402 48.0273C133.066 47.8242 132.66 47.7227 132.184 47.7227C131.707 47.7227 131.301 47.8242 130.965 48.0273C130.637 48.2305 130.367 48.5117 130.156 48.8711C129.953 49.2227 129.805 49.6289 129.711 50.0898C129.617 50.543 129.57 51.0273 129.57 51.543ZM144.406 55.5391L147.219 45.3203H150.746L146.469 58H144.336L144.406 55.5391ZM142.473 45.3203L145.297 55.5508L145.355 58H143.211L138.934 45.3203H142.473ZM155.82 45.3203V58H152.434V45.3203H155.82ZM152.223 42.0156C152.223 41.5234 152.395 41.1172 152.738 40.7969C153.082 40.4766 153.543 40.3164 154.121 40.3164C154.691 40.3164 155.148 40.4766 155.492 40.7969C155.844 41.1172 156.02 41.5234 156.02 42.0156C156.02 42.5078 155.844 42.9141 155.492 43.2344C155.148 43.5547 154.691 43.7148 154.121 43.7148C153.543 43.7148 153.082 43.5547 152.738 43.2344C152.395 42.9141 152.223 42.5078 152.223 42.0156ZM164.445 58.2344C163.461 58.2344 162.578 58.0781 161.797 57.7656C161.016 57.4453 160.352 57.0039 159.805 56.4414C159.266 55.8789 158.852 55.2266 158.562 54.4844C158.273 53.7344 158.129 52.9375 158.129 52.0938V51.625C158.129 50.6641 158.266 49.7852 158.539 48.9883C158.812 48.1914 159.203 47.5 159.711 46.9141C160.227 46.3281 160.852 45.8789 161.586 45.5664C162.32 45.2461 163.148 45.0859 164.07 45.0859C164.969 45.0859 165.766 45.2344 166.461 45.5312C167.156 45.8281 167.738 46.25 168.207 46.7969C168.684 47.3438 169.043 48 169.285 48.7656C169.527 49.5234 169.648 50.3672 169.648 51.2969V52.7031H159.57V50.4531H166.332V50.1953C166.332 49.7266 166.246 49.3086 166.074 48.9414C165.91 48.5664 165.66 48.2695 165.324 48.0508C164.988 47.832 164.559 47.7227 164.035 47.7227C163.59 47.7227 163.207 47.8203 162.887 48.0156C162.566 48.2109 162.305 48.4844 162.102 48.8359C161.906 49.1875 161.758 49.6016 161.656 50.0781C161.562 50.5469 161.516 51.0625 161.516 51.625V52.0938C161.516 52.6016 161.586 53.0703 161.727 53.5C161.875 53.9297 162.082 54.3008 162.348 54.6133C162.621 54.9258 162.949 55.168 163.332 55.3398C163.723 55.5117 164.164 55.5977 164.656 55.5977C165.266 55.5977 165.832 55.4805 166.355 55.2461C166.887 55.0039 167.344 54.6406 167.727 54.1562L169.367 55.9375C169.102 56.3203 168.738 56.6875 168.277 57.0391C167.824 57.3906 167.277 57.6797 166.637 57.9062C165.996 58.125 165.266 58.2344 164.445 58.2344ZM181.273 40.9375V58H177.758V40.9375H181.273ZM188.07 48.2266V50.9688H180.312V48.2266H188.07ZM188.891 40.9375V43.6914H180.312V40.9375H188.891ZM197.164 55.1406V49.4922C197.164 49.0859 197.098 48.7383 196.965 48.4492C196.832 48.1523 196.625 47.9219 196.344 47.7578C196.07 47.5938 195.715 47.5117 195.277 47.5117C194.902 47.5117 194.578 47.5781 194.305 47.7109C194.031 47.8359 193.82 48.0195 193.672 48.2617C193.523 48.4961 193.449 48.7734 193.449 49.0938H190.074C190.074 48.5547 190.199 48.043 190.449 47.5586C190.699 47.0742 191.062 46.6484 191.539 46.2812C192.016 45.9062 192.582 45.6133 193.238 45.4023C193.902 45.1914 194.645 45.0859 195.465 45.0859C196.449 45.0859 197.324 45.25 198.09 45.5781C198.855 45.9062 199.457 46.3984 199.895 47.0547C200.34 47.7109 200.562 48.5312 200.562 49.5156V54.9414C200.562 55.6367 200.605 56.207 200.691 56.6523C200.777 57.0898 200.902 57.4727 201.066 57.8008V58H197.656C197.492 57.6562 197.367 57.2266 197.281 56.7109C197.203 56.1875 197.164 55.6641 197.164 55.1406ZM197.609 50.2773L197.633 52.1875H195.746C195.301 52.1875 194.914 52.2383 194.586 52.3398C194.258 52.4414 193.988 52.5859 193.777 52.7734C193.566 52.9531 193.41 53.1641 193.309 53.4062C193.215 53.6484 193.168 53.9141 193.168 54.2031C193.168 54.4922 193.234 54.7539 193.367 54.9883C193.5 55.2148 193.691 55.3945 193.941 55.5273C194.191 55.6523 194.484 55.7148 194.82 55.7148C195.328 55.7148 195.77 55.6133 196.145 55.4102C196.52 55.207 196.809 54.957 197.012 54.6602C197.223 54.3633 197.332 54.082 197.34 53.8164L198.23 55.2461C198.105 55.5664 197.934 55.8984 197.715 56.2422C197.504 56.5859 197.234 56.9102 196.906 57.2148C196.578 57.5117 196.184 57.7578 195.723 57.9531C195.262 58.1406 194.715 58.2344 194.082 58.2344C193.277 58.2344 192.547 58.0742 191.891 57.7539C191.242 57.4258 190.727 56.9766 190.344 56.4062C189.969 55.8281 189.781 55.1719 189.781 54.4375C189.781 53.7734 189.906 53.1836 190.156 52.668C190.406 52.1523 190.773 51.7188 191.258 51.3672C191.75 51.0078 192.363 50.7383 193.098 50.5586C193.832 50.3711 194.684 50.2773 195.652 50.2773H197.609ZM206.469 48.0273V58H203.094V45.3203H206.258L206.469 48.0273ZM205.977 51.2148H205.062C205.062 50.2773 205.184 49.4336 205.426 48.6836C205.668 47.9258 206.008 47.2812 206.445 46.75C206.883 46.2109 207.402 45.8008 208.004 45.5195C208.613 45.2305 209.293 45.0859 210.043 45.0859C210.637 45.0859 211.18 45.1719 211.672 45.3438C212.164 45.5156 212.586 45.7891 212.938 46.1641C213.297 46.5391 213.57 47.0352 213.758 47.6523C213.953 48.2695 214.051 49.0234 214.051 49.9141V58H210.652V49.9023C210.652 49.3398 210.574 48.9023 210.418 48.5898C210.262 48.2773 210.031 48.0586 209.727 47.9336C209.43 47.8008 209.062 47.7344 208.625 47.7344C208.172 47.7344 207.777 47.8242 207.441 48.0039C207.113 48.1836 206.84 48.4336 206.621 48.7539C206.41 49.0664 206.25 49.4336 206.141 49.8555C206.031 50.2773 205.977 50.7305 205.977 51.2148ZM223.461 55.1406V49.4922C223.461 49.0859 223.395 48.7383 223.262 48.4492C223.129 48.1523 222.922 47.9219 222.641 47.7578C222.367 47.5938 222.012 47.5117 221.574 47.5117C221.199 47.5117 220.875 47.5781 220.602 47.7109C220.328 47.8359 220.117 48.0195 219.969 48.2617C219.82 48.4961 219.746 48.7734 219.746 49.0938H216.371C216.371 48.5547 216.496 48.043 216.746 47.5586C216.996 47.0742 217.359 46.6484 217.836 46.2812C218.312 45.9062 218.879 45.6133 219.535 45.4023C220.199 45.1914 220.941 45.0859 221.762 45.0859C222.746 45.0859 223.621 45.25 224.387 45.5781C225.152 45.9062 225.754 46.3984 226.191 47.0547C226.637 47.7109 226.859 48.5312 226.859 49.5156V54.9414C226.859 55.6367 226.902 56.207 226.988 56.6523C227.074 57.0898 227.199 57.4727 227.363 57.8008V58H223.953C223.789 57.6562 223.664 57.2266 223.578 56.7109C223.5 56.1875 223.461 55.6641 223.461 55.1406ZM223.906 50.2773L223.93 52.1875H222.043C221.598 52.1875 221.211 52.2383 220.883 52.3398C220.555 52.4414 220.285 52.5859 220.074 52.7734C219.863 52.9531 219.707 53.1641 219.605 53.4062C219.512 53.6484 219.465 53.9141 219.465 54.2031C219.465 54.4922 219.531 54.7539 219.664 54.9883C219.797 55.2148 219.988 55.3945 220.238 55.5273C220.488 55.6523 220.781 55.7148 221.117 55.7148C221.625 55.7148 222.066 55.6133 222.441 55.4102C222.816 55.207 223.105 54.957 223.309 54.6602C223.52 54.3633 223.629 54.082 223.637 53.8164L224.527 55.2461C224.402 55.5664 224.23 55.8984 224.012 56.2422C223.801 56.5859 223.531 56.9102 223.203 57.2148C222.875 57.5117 222.48 57.7578 222.02 57.9531C221.559 58.1406 221.012 58.2344 220.379 58.2344C219.574 58.2344 218.844 58.0742 218.188 57.7539C217.539 57.4258 217.023 56.9766 216.641 56.4062C216.266 55.8281 216.078 55.1719 216.078 54.4375C216.078 53.7734 216.203 53.1836 216.453 52.668C216.703 52.1523 217.07 51.7188 217.555 51.3672C218.047 51.0078 218.66 50.7383 219.395 50.5586C220.129 50.3711 220.98 50.2773 221.949 50.2773H223.906ZM235.672 45.3203V47.7109H228.289V45.3203H235.672ZM230.117 42.1914H233.492V54.1797C233.492 54.5469 233.539 54.8281 233.633 55.0234C233.734 55.2188 233.883 55.3555 234.078 55.4336C234.273 55.5039 234.52 55.5391 234.816 55.5391C235.027 55.5391 235.215 55.5312 235.379 55.5156C235.551 55.4922 235.695 55.4688 235.812 55.4453L235.824 57.9297C235.535 58.0234 235.223 58.0977 234.887 58.1523C234.551 58.207 234.18 58.2344 233.773 58.2344C233.031 58.2344 232.383 58.1133 231.828 57.8711C231.281 57.6211 230.859 57.2227 230.562 56.6758C230.266 56.1289 230.117 55.4102 230.117 54.5195V42.1914ZM241.156 45.3203V58H237.77V45.3203H241.156ZM237.559 42.0156C237.559 41.5234 237.73 41.1172 238.074 40.7969C238.418 40.4766 238.879 40.3164 239.457 40.3164C240.027 40.3164 240.484 40.4766 240.828 40.7969C241.18 41.1172 241.355 41.5234 241.355 42.0156C241.355 42.5078 241.18 42.9141 240.828 43.2344C240.484 43.5547 240.027 43.7148 239.457 43.7148C238.879 43.7148 238.418 43.5547 238.074 43.2344C237.73 42.9141 237.559 42.5078 237.559 42.0156ZM249.184 55.5977C249.598 55.5977 249.965 55.5195 250.285 55.3633C250.605 55.1992 250.855 54.9727 251.035 54.6836C251.223 54.3867 251.32 54.0391 251.328 53.6406H254.504C254.496 54.5312 254.258 55.3242 253.789 56.0195C253.32 56.707 252.691 57.25 251.902 57.6484C251.113 58.0391 250.23 58.2344 249.254 58.2344C248.27 58.2344 247.41 58.0703 246.676 57.7422C245.949 57.4141 245.344 56.9609 244.859 56.3828C244.375 55.7969 244.012 55.1172 243.77 54.3438C243.527 53.5625 243.406 52.7266 243.406 51.8359V51.4961C243.406 50.5977 243.527 49.7617 243.77 48.9883C244.012 48.207 244.375 47.5273 244.859 46.9492C245.344 46.3633 245.949 45.9062 246.676 45.5781C247.402 45.25 248.254 45.0859 249.23 45.0859C250.27 45.0859 251.18 45.2852 251.961 45.6836C252.75 46.082 253.367 46.6523 253.812 47.3945C254.266 48.1289 254.496 49 254.504 50.0078H251.328C251.32 49.5859 251.23 49.2031 251.059 48.8594C250.895 48.5156 250.652 48.2422 250.332 48.0391C250.02 47.8281 249.633 47.7227 249.172 47.7227C248.68 47.7227 248.277 47.8281 247.965 48.0391C247.652 48.2422 247.41 48.5234 247.238 48.8828C247.066 49.2344 246.945 49.6367 246.875 50.0898C246.812 50.5352 246.781 51.0039 246.781 51.4961V51.8359C246.781 52.3281 246.812 52.8008 246.875 53.2539C246.938 53.707 247.055 54.1094 247.227 54.4609C247.406 54.8125 247.652 55.0898 247.965 55.293C248.277 55.4961 248.684 55.5977 249.184 55.5977ZM263.316 54.4961C263.316 54.2539 263.246 54.0352 263.105 53.8398C262.965 53.6445 262.703 53.4648 262.32 53.3008C261.945 53.1289 261.402 52.9727 260.691 52.832C260.051 52.6914 259.453 52.5156 258.898 52.3047C258.352 52.0859 257.875 51.8242 257.469 51.5195C257.07 51.2148 256.758 50.8555 256.531 50.4414C256.305 50.0195 256.191 49.5391 256.191 49C256.191 48.4688 256.305 47.9688 256.531 47.5C256.766 47.0312 257.098 46.6172 257.527 46.2578C257.965 45.8906 258.496 45.6055 259.121 45.4023C259.754 45.1914 260.465 45.0859 261.254 45.0859C262.355 45.0859 263.301 45.2617 264.09 45.6133C264.887 45.9648 265.496 46.4492 265.918 47.0664C266.348 47.6758 266.562 48.3711 266.562 49.1523H263.188C263.188 48.8242 263.117 48.5312 262.977 48.2734C262.844 48.0078 262.633 47.8008 262.344 47.6523C262.062 47.4961 261.695 47.418 261.242 47.418C260.867 47.418 260.543 47.4844 260.27 47.6172C259.996 47.7422 259.785 47.9141 259.637 48.1328C259.496 48.3438 259.426 48.5781 259.426 48.8359C259.426 49.0312 259.465 49.207 259.543 49.3633C259.629 49.5117 259.766 49.6484 259.953 49.7734C260.141 49.8984 260.383 50.0156 260.68 50.125C260.984 50.2266 261.359 50.3203 261.805 50.4062C262.719 50.5938 263.535 50.8398 264.254 51.1445C264.973 51.4414 265.543 51.8477 265.965 52.3633C266.387 52.8711 266.598 53.5391 266.598 54.3672C266.598 54.9297 266.473 55.4453 266.223 55.9141C265.973 56.3828 265.613 56.793 265.145 57.1445C264.676 57.4883 264.113 57.7578 263.457 57.9531C262.809 58.1406 262.078 58.2344 261.266 58.2344C260.086 58.2344 259.086 58.0234 258.266 57.6016C257.453 57.1797 256.836 56.6445 256.414 55.9961C256 55.3398 255.793 54.668 255.793 53.9805H258.992C259.008 54.4414 259.125 54.8125 259.344 55.0938C259.57 55.375 259.855 55.5781 260.199 55.7031C260.551 55.8281 260.93 55.8906 261.336 55.8906C261.773 55.8906 262.137 55.832 262.426 55.7148C262.715 55.5898 262.934 55.4258 263.082 55.2227C263.238 55.0117 263.316 54.7695 263.316 54.4961Z" fill="#888888"/>
<path d="M109.93 86.0078V118H102.217V86.0078H109.93ZM119.554 86.0078V91.9624H92.813V86.0078H119.554ZM132.012 118.439C130.079 118.439 128.35 118.139 126.827 117.539C125.303 116.923 124.014 116.081 122.959 115.012C121.919 113.942 121.121 112.712 120.564 111.32C120.022 109.929 119.751 108.457 119.751 106.904V106.069C119.751 104.326 119.993 102.714 120.477 101.235C120.96 99.7407 121.678 98.437 122.63 97.3237C123.582 96.2104 124.776 95.3462 126.211 94.731C127.647 94.1011 129.317 93.7861 131.221 93.7861C132.906 93.7861 134.415 94.0571 135.748 94.5991C137.081 95.1411 138.208 95.9175 139.131 96.9282C140.069 97.939 140.779 99.1621 141.263 100.598C141.761 102.033 142.01 103.645 142.01 105.432V108.442H122.586V103.806H134.781V103.234C134.795 102.443 134.656 101.77 134.363 101.213C134.085 100.656 133.675 100.231 133.133 99.9385C132.591 99.6455 131.932 99.499 131.155 99.499C130.35 99.499 129.683 99.6748 129.156 100.026C128.643 100.378 128.24 100.861 127.947 101.477C127.669 102.077 127.471 102.773 127.354 103.564C127.237 104.355 127.178 105.19 127.178 106.069V106.904C127.178 107.783 127.295 108.581 127.53 109.299C127.779 110.017 128.13 110.632 128.584 111.145C129.053 111.643 129.61 112.031 130.254 112.309C130.914 112.587 131.661 112.727 132.496 112.727C133.506 112.727 134.502 112.536 135.484 112.155C136.465 111.774 137.308 111.145 138.011 110.266L141.373 114.265C140.889 114.953 140.201 115.62 139.307 116.264C138.428 116.909 137.374 117.436 136.143 117.846C134.913 118.242 133.536 118.439 132.012 118.439ZM155.062 112.727C155.75 112.727 156.336 112.602 156.819 112.353C157.317 112.089 157.691 111.723 157.94 111.254C158.204 110.771 158.328 110.192 158.313 109.519H165.279C165.293 111.306 164.854 112.873 163.96 114.221C163.082 115.554 161.88 116.594 160.357 117.341C158.848 118.073 157.142 118.439 155.237 118.439C153.377 118.439 151.751 118.139 150.359 117.539C148.968 116.923 147.803 116.074 146.866 114.99C145.943 113.891 145.247 112.609 144.778 111.145C144.324 109.68 144.097 108.09 144.097 106.376V105.871C144.097 104.157 144.324 102.568 144.778 101.103C145.247 99.6235 145.943 98.3418 146.866 97.2578C147.803 96.1592 148.96 95.3096 150.337 94.709C151.729 94.0938 153.348 93.7861 155.193 93.7861C157.171 93.7861 158.914 94.1597 160.423 94.9067C161.946 95.6538 163.14 96.7378 164.004 98.1587C164.869 99.5796 165.293 101.301 165.279 103.322H158.313C158.328 102.604 158.218 101.96 157.984 101.389C157.75 100.817 157.383 100.363 156.885 100.026C156.402 99.6748 155.779 99.499 155.018 99.499C154.256 99.499 153.641 99.6675 153.172 100.004C152.703 100.341 152.344 100.81 152.095 101.411C151.861 101.997 151.7 102.67 151.612 103.432C151.539 104.194 151.502 105.007 151.502 105.871V106.376C151.502 107.255 151.539 108.083 151.612 108.859C151.7 109.621 151.868 110.295 152.117 110.881C152.366 111.452 152.725 111.906 153.194 112.243C153.663 112.565 154.285 112.727 155.062 112.727ZM175.694 84.25V118H168.289V84.25H175.694ZM174.815 105.3L173.079 105.344C173.079 103.674 173.284 102.136 173.694 100.729C174.104 99.3232 174.69 98.1001 175.452 97.0601C176.214 96.02 177.129 95.2144 178.199 94.6431C179.268 94.0718 180.455 93.7861 181.758 93.7861C182.93 93.7861 184 93.9546 184.966 94.2915C185.948 94.6284 186.79 95.1704 187.493 95.9175C188.211 96.6646 188.76 97.6387 189.141 98.8398C189.537 100.041 189.734 101.506 189.734 103.234V118H182.286V103.19C182.286 102.224 182.146 101.477 181.868 100.949C181.604 100.407 181.224 100.034 180.726 99.8286C180.228 99.6089 179.62 99.499 178.902 99.499C178.038 99.499 177.334 99.6455 176.792 99.9385C176.25 100.231 175.833 100.642 175.54 101.169C175.262 101.682 175.071 102.29 174.969 102.993C174.866 103.696 174.815 104.465 174.815 105.3ZM221.88 109.497C221.88 108.999 221.807 108.552 221.661 108.156C221.514 107.746 221.243 107.365 220.848 107.014C220.452 106.662 219.881 106.311 219.134 105.959C218.401 105.593 217.435 105.212 216.233 104.816C214.827 104.348 213.472 103.82 212.168 103.234C210.865 102.634 209.7 101.938 208.675 101.147C207.649 100.341 206.836 99.4038 206.236 98.3345C205.635 97.2505 205.335 95.9907 205.335 94.5552C205.335 93.1782 205.643 91.9404 206.258 90.8418C206.873 89.7285 207.73 88.7837 208.829 88.0073C209.942 87.2163 211.246 86.6157 212.74 86.2056C214.234 85.7808 215.867 85.5684 217.64 85.5684C219.983 85.5684 222.049 85.9785 223.836 86.7988C225.638 87.6045 227.044 88.7544 228.055 90.2485C229.08 91.728 229.593 93.4785 229.593 95.5H221.924C221.924 94.6943 221.756 93.9839 221.419 93.3687C221.097 92.7534 220.606 92.27 219.947 91.9185C219.288 91.5669 218.46 91.3911 217.464 91.3911C216.497 91.3911 215.684 91.5376 215.025 91.8306C214.366 92.1235 213.868 92.519 213.531 93.0171C213.194 93.5005 213.025 94.0352 213.025 94.6211C213.025 95.1045 213.157 95.5439 213.421 95.9395C213.699 96.3203 214.087 96.6792 214.585 97.0161C215.098 97.353 215.713 97.6753 216.431 97.9829C217.164 98.2905 217.984 98.5908 218.892 98.8838C220.591 99.4258 222.1 100.034 223.418 100.708C224.751 101.367 225.872 102.121 226.78 102.971C227.703 103.806 228.399 104.758 228.868 105.827C229.351 106.896 229.593 108.105 229.593 109.453C229.593 110.888 229.314 112.163 228.758 113.276C228.201 114.389 227.403 115.334 226.363 116.11C225.323 116.872 224.078 117.451 222.627 117.846C221.177 118.242 219.559 118.439 217.771 118.439C216.131 118.439 214.512 118.234 212.916 117.824C211.333 117.399 209.898 116.755 208.609 115.891C207.32 115.012 206.287 113.891 205.511 112.529C204.749 111.152 204.368 109.519 204.368 107.629H212.103C212.103 108.566 212.227 109.357 212.476 110.002C212.725 110.646 213.091 111.167 213.575 111.562C214.058 111.943 214.651 112.221 215.354 112.397C216.058 112.558 216.863 112.639 217.771 112.639C218.753 112.639 219.544 112.5 220.145 112.221C220.745 111.928 221.185 111.547 221.463 111.079C221.741 110.595 221.88 110.068 221.88 109.497ZM245.743 94.2256V99.3672H231.417V94.2256H245.743ZM234.427 88.3149H241.832V110.244C241.832 110.874 241.905 111.364 242.051 111.716C242.198 112.053 242.447 112.294 242.798 112.441C243.165 112.573 243.648 112.639 244.249 112.639C244.673 112.639 245.025 112.631 245.303 112.617C245.582 112.587 245.845 112.551 246.094 112.507V117.802C245.464 118.007 244.805 118.161 244.117 118.264C243.428 118.381 242.696 118.439 241.919 118.439C240.337 118.439 238.982 118.19 237.854 117.692C236.741 117.194 235.892 116.411 235.306 115.341C234.72 114.272 234.427 112.88 234.427 111.167V88.3149ZM261.036 112.023V102.224C261.036 101.55 260.94 100.971 260.75 100.488C260.56 100.004 260.259 99.6309 259.849 99.3672C259.439 99.0889 258.89 98.9497 258.201 98.9497C257.645 98.9497 257.168 99.0449 256.773 99.2354C256.377 99.4258 256.077 99.7114 255.872 100.092C255.667 100.473 255.564 100.957 255.564 101.542H248.16C248.16 100.444 248.401 99.4258 248.885 98.4883C249.383 97.5361 250.086 96.7085 250.994 96.0054C251.917 95.3022 253.016 94.7603 254.29 94.3794C255.579 93.9839 257.015 93.7861 258.597 93.7861C260.486 93.7861 262.171 94.1011 263.65 94.731C265.145 95.3608 266.324 96.3057 267.188 97.5654C268.052 98.8105 268.484 100.378 268.484 102.268V112.001C268.484 113.554 268.572 114.733 268.748 115.539C268.924 116.33 269.173 117.026 269.495 117.626V118H262.068C261.717 117.268 261.453 116.374 261.277 115.319C261.116 114.25 261.036 113.151 261.036 112.023ZM261.937 103.476L261.98 107.431H258.707C258.018 107.431 257.432 107.526 256.949 107.717C256.48 107.907 256.099 108.171 255.806 108.508C255.528 108.83 255.323 109.196 255.191 109.606C255.074 110.017 255.015 110.449 255.015 110.903C255.015 111.342 255.118 111.738 255.323 112.089C255.542 112.426 255.835 112.69 256.202 112.88C256.568 113.071 256.978 113.166 257.432 113.166C258.252 113.166 258.948 113.012 259.52 112.705C260.105 112.382 260.552 111.994 260.86 111.54C261.167 111.086 261.321 110.661 261.321 110.266L262.947 113.298C262.654 113.884 262.317 114.477 261.937 115.078C261.57 115.678 261.109 116.235 260.552 116.748C260.01 117.246 259.344 117.656 258.553 117.978C257.762 118.286 256.802 118.439 255.674 118.439C254.209 118.439 252.862 118.139 251.631 117.539C250.416 116.938 249.441 116.103 248.709 115.034C247.977 113.95 247.61 112.705 247.61 111.298C247.61 110.068 247.83 108.969 248.27 108.002C248.724 107.036 249.405 106.215 250.313 105.542C251.221 104.868 252.378 104.355 253.785 104.003C255.191 103.652 256.846 103.476 258.75 103.476H261.937ZM282.635 112.727C283.323 112.727 283.909 112.602 284.393 112.353C284.891 112.089 285.264 111.723 285.513 111.254C285.777 110.771 285.901 110.192 285.887 109.519H292.852C292.867 111.306 292.427 112.873 291.534 114.221C290.655 115.554 289.454 116.594 287.93 117.341C286.421 118.073 284.715 118.439 282.811 118.439C280.95 118.439 279.324 118.139 277.933 117.539C276.541 116.923 275.376 116.074 274.439 114.99C273.516 113.891 272.82 112.609 272.352 111.145C271.897 109.68 271.67 108.09 271.67 106.376V105.871C271.67 104.157 271.897 102.568 272.352 101.103C272.82 99.6235 273.516 98.3418 274.439 97.2578C275.376 96.1592 276.534 95.3096 277.911 94.709C279.302 94.0938 280.921 93.7861 282.767 93.7861C284.744 93.7861 286.487 94.1597 287.996 94.9067C289.52 95.6538 290.713 96.7378 291.578 98.1587C292.442 99.5796 292.867 101.301 292.852 103.322H285.887C285.901 102.604 285.792 101.96 285.557 101.389C285.323 100.817 284.957 100.363 284.458 100.026C283.975 99.6748 283.353 99.499 282.591 99.499C281.829 99.499 281.214 99.6675 280.745 100.004C280.276 100.341 279.917 100.81 279.668 101.411C279.434 101.997 279.273 102.67 279.185 103.432C279.112 104.194 279.075 105.007 279.075 105.871V106.376C279.075 107.255 279.112 108.083 279.185 108.859C279.273 109.621 279.441 110.295 279.69 110.881C279.939 111.452 280.298 111.906 280.767 112.243C281.236 112.565 281.858 112.727 282.635 112.727ZM303.487 84.228V118H296.082V84.228H303.487ZM318.692 94.2256L308.365 106.333L302.959 111.738L299.729 107.036L304.234 101.169L309.815 94.2256H318.692ZM310.76 118L304.41 107.167L309.881 103.278L319.241 118H310.76Z" fill="black"/>
<path d="M1363 15C1363 6.71573 1356.28 0 1348 0H1134V167H1348C1356.28 167 1363 160.284 1363 152V15Z" fill="#FF0000"/>
</svg>
