<svg width="1363" height="301" viewBox="0 0 1363 301" fill="none" xmlns="http://www.w3.org/2000/svg">
<rect width="1363" height="301" rx="15" fill="white"/>
<path d="M0 15C0 6.71573 6.71573 0 15 0H37V301H15C6.71573 301 0 294.284 0 286V15Z" fill="#FF0000"/>
<path d="M99.6538 104.898H107.334L116.062 132.103L124.791 104.898H132.471L119.178 144H112.947L99.6538 104.898ZM94.981 104.898H102.93L104.407 134.869V144H94.981V104.898ZM129.195 104.898H137.171V144H127.718V134.869L129.195 104.898ZM141.656 129.767V129.203C141.656 127.072 141.96 125.112 142.569 123.321C143.178 121.513 144.073 119.946 145.254 118.622C146.436 117.297 147.895 116.267 149.632 115.533C151.368 114.781 153.374 114.405 155.647 114.405C157.939 114.405 159.953 114.781 161.69 115.533C163.444 116.267 164.913 117.297 166.094 118.622C167.276 119.946 168.171 121.513 168.78 123.321C169.389 125.112 169.693 127.072 169.693 129.203V129.767C169.693 131.879 169.389 133.84 168.78 135.648C168.171 137.438 167.276 139.005 166.094 140.348C164.913 141.673 163.453 142.702 161.717 143.436C159.98 144.17 157.975 144.537 155.701 144.537C153.427 144.537 151.413 144.17 149.659 143.436C147.904 142.702 146.436 141.673 145.254 140.348C144.073 139.005 143.178 137.438 142.569 135.648C141.96 133.84 141.656 131.879 141.656 129.767ZM150.706 129.203V129.767C150.706 130.859 150.787 131.879 150.948 132.828C151.109 133.777 151.377 134.61 151.753 135.326C152.129 136.024 152.64 136.57 153.284 136.964C153.929 137.358 154.734 137.555 155.701 137.555C156.65 137.555 157.438 137.358 158.064 136.964C158.709 136.57 159.219 136.024 159.595 135.326C159.971 134.61 160.24 133.777 160.401 132.828C160.562 131.879 160.643 130.859 160.643 129.767V129.203C160.643 128.146 160.562 127.153 160.401 126.222C160.24 125.273 159.971 124.44 159.595 123.724C159.219 122.99 158.709 122.417 158.064 122.005C157.42 121.594 156.614 121.388 155.647 121.388C154.699 121.388 153.902 121.594 153.257 122.005C152.631 122.417 152.129 122.99 151.753 123.724C151.377 124.44 151.109 125.273 150.948 126.222C150.787 127.153 150.706 128.146 150.706 129.203ZM183.765 137.796L189.485 114.942H199.019L189.512 144H183.873L183.765 137.796ZM180.381 114.942L186.021 137.796L185.967 144H180.301L170.821 114.942H180.381ZM211.265 114.942V144H202.188V114.942H211.265ZM201.651 107.45C201.651 106.161 202.116 105.104 203.047 104.281C203.978 103.457 205.187 103.045 206.673 103.045C208.159 103.045 209.367 103.457 210.298 104.281C211.229 105.104 211.695 106.161 211.695 107.45C211.695 108.739 211.229 109.795 210.298 110.619C209.367 111.442 208.159 111.854 206.673 111.854C205.187 111.854 203.978 111.442 203.047 110.619C202.116 109.795 201.651 108.739 201.651 107.45ZM230.923 144.537C228.56 144.537 226.447 144.17 224.585 143.436C222.723 142.684 221.148 141.655 219.859 140.348C218.588 139.041 217.612 137.537 216.932 135.836C216.269 134.135 215.938 132.336 215.938 130.438V129.417C215.938 127.287 216.233 125.318 216.824 123.509C217.415 121.683 218.292 120.09 219.456 118.729C220.62 117.368 222.079 116.312 223.833 115.56C225.588 114.79 227.629 114.405 229.957 114.405C232.015 114.405 233.86 114.736 235.489 115.399C237.118 116.061 238.497 117.01 239.625 118.246C240.77 119.481 241.639 120.976 242.229 122.73C242.838 124.485 243.143 126.454 243.143 128.639V132.318H219.402V126.651H234.307V125.953C234.325 124.986 234.155 124.163 233.797 123.482C233.457 122.802 232.955 122.283 232.293 121.925C231.631 121.567 230.825 121.388 229.876 121.388C228.891 121.388 228.077 121.603 227.432 122.032C226.806 122.462 226.313 123.053 225.955 123.805C225.615 124.539 225.373 125.389 225.23 126.356C225.087 127.323 225.015 128.343 225.015 129.417V130.438C225.015 131.512 225.158 132.488 225.445 133.365C225.749 134.243 226.179 134.994 226.734 135.621C227.307 136.23 227.987 136.704 228.775 137.044C229.581 137.385 230.494 137.555 231.514 137.555C232.75 137.555 233.967 137.322 235.167 136.856C236.366 136.391 237.396 135.621 238.255 134.547L242.364 139.435C241.773 140.276 240.931 141.091 239.839 141.878C238.765 142.666 237.476 143.311 235.972 143.812C234.468 144.295 232.785 144.537 230.923 144.537ZM270.374 104.898V144H260.948V104.898H270.374ZM285.574 121.173V128.424H267.688V121.173H285.574ZM287.105 104.898V112.176H267.688V104.898H287.105ZM304.776 136.695V124.718C304.776 123.894 304.66 123.187 304.427 122.596C304.194 122.005 303.827 121.549 303.326 121.227C302.824 120.886 302.153 120.716 301.312 120.716C300.631 120.716 300.049 120.833 299.566 121.065C299.083 121.298 298.715 121.647 298.465 122.113C298.214 122.578 298.089 123.169 298.089 123.885H289.039C289.039 122.542 289.334 121.298 289.925 120.152C290.534 118.989 291.393 117.977 292.503 117.118C293.631 116.258 294.974 115.596 296.531 115.13C298.107 114.647 299.861 114.405 301.795 114.405C304.104 114.405 306.163 114.79 307.972 115.56C309.798 116.33 311.239 117.485 312.295 119.024C313.352 120.546 313.88 122.462 313.88 124.771V136.668C313.88 138.566 313.987 140.007 314.202 140.992C314.417 141.959 314.721 142.809 315.115 143.543V144H306.038C305.608 143.105 305.286 142.013 305.071 140.724C304.874 139.417 304.776 138.074 304.776 136.695ZM305.877 126.249L305.931 131.083H301.929C301.088 131.083 300.372 131.199 299.781 131.432C299.208 131.664 298.742 131.987 298.384 132.398C298.044 132.792 297.793 133.24 297.632 133.741C297.489 134.243 297.417 134.771 297.417 135.326C297.417 135.863 297.543 136.346 297.793 136.776C298.062 137.188 298.42 137.51 298.868 137.743C299.315 137.975 299.817 138.092 300.372 138.092C301.374 138.092 302.225 137.904 302.923 137.528C303.639 137.134 304.185 136.66 304.561 136.104C304.937 135.549 305.125 135.03 305.125 134.547L307.112 138.253C306.754 138.969 306.342 139.694 305.877 140.428C305.429 141.162 304.865 141.843 304.185 142.469C303.523 143.078 302.708 143.579 301.741 143.973C300.774 144.349 299.602 144.537 298.223 144.537C296.433 144.537 294.786 144.17 293.282 143.436C291.796 142.702 290.605 141.681 289.71 140.375C288.815 139.05 288.367 137.528 288.367 135.809C288.367 134.305 288.636 132.962 289.173 131.781C289.728 130.599 290.56 129.597 291.67 128.773C292.78 127.949 294.195 127.323 295.914 126.893C297.632 126.463 299.655 126.249 301.983 126.249H305.877ZM327.791 121.146V144H318.741V114.942H327.227L327.791 121.146ZM326.717 128.478L324.595 128.531C324.595 126.311 324.864 124.333 325.401 122.596C325.938 120.842 326.699 119.356 327.684 118.138C328.668 116.921 329.841 115.999 331.202 115.372C332.58 114.728 334.111 114.405 335.794 114.405C337.137 114.405 338.363 114.602 339.473 114.996C340.601 115.39 341.568 116.026 342.374 116.903C343.197 117.78 343.824 118.944 344.253 120.394C344.701 121.826 344.925 123.599 344.925 125.711V144H335.821V125.685C335.821 124.521 335.66 123.635 335.337 123.026C335.015 122.399 334.55 121.97 333.941 121.737C333.332 121.504 332.589 121.388 331.712 121.388C330.781 121.388 329.993 121.567 329.349 121.925C328.704 122.283 328.185 122.784 327.791 123.429C327.415 124.055 327.138 124.798 326.958 125.658C326.797 126.517 326.717 127.457 326.717 128.478ZM365.04 136.695V124.718C365.04 123.894 364.923 123.187 364.69 122.596C364.458 122.005 364.091 121.549 363.589 121.227C363.088 120.886 362.417 120.716 361.575 120.716C360.895 120.716 360.313 120.833 359.83 121.065C359.346 121.298 358.979 121.647 358.729 122.113C358.478 122.578 358.353 123.169 358.353 123.885H349.302C349.302 122.542 349.598 121.298 350.188 120.152C350.797 118.989 351.657 117.977 352.767 117.118C353.895 116.258 355.237 115.596 356.795 115.13C358.37 114.647 360.125 114.405 362.059 114.405C364.368 114.405 366.427 114.79 368.235 115.56C370.062 116.33 371.503 117.485 372.559 119.024C373.615 120.546 374.144 122.462 374.144 124.771V136.668C374.144 138.566 374.251 140.007 374.466 140.992C374.681 141.959 374.985 142.809 375.379 143.543V144H366.302C365.872 143.105 365.55 142.013 365.335 140.724C365.138 139.417 365.04 138.074 365.04 136.695ZM366.141 126.249L366.194 131.083H362.193C361.351 131.083 360.635 131.199 360.044 131.432C359.472 131.664 359.006 131.987 358.648 132.398C358.308 132.792 358.057 133.24 357.896 133.741C357.753 134.243 357.681 134.771 357.681 135.326C357.681 135.863 357.806 136.346 358.057 136.776C358.326 137.188 358.684 137.51 359.131 137.743C359.579 137.975 360.08 138.092 360.635 138.092C361.638 138.092 362.488 137.904 363.187 137.528C363.903 137.134 364.449 136.66 364.825 136.104C365.201 135.549 365.389 135.03 365.389 134.547L367.376 138.253C367.018 138.969 366.606 139.694 366.141 140.428C365.693 141.162 365.129 141.843 364.449 142.469C363.786 143.078 362.972 143.579 362.005 143.973C361.038 144.349 359.865 144.537 358.487 144.537C356.696 144.537 355.049 144.17 353.545 143.436C352.059 142.702 350.869 141.681 349.974 140.375C349.078 139.05 348.631 137.528 348.631 135.809C348.631 134.305 348.899 132.962 349.437 131.781C349.992 130.599 350.824 129.597 351.934 128.773C353.044 127.949 354.458 127.323 356.177 126.893C357.896 126.463 359.919 126.249 362.247 126.249H366.141ZM394.473 114.942V121.227H376.963V114.942H394.473ZM380.643 107.718H389.693V134.52C389.693 135.29 389.782 135.89 389.961 136.319C390.14 136.731 390.445 137.027 390.875 137.206C391.322 137.367 391.913 137.447 392.647 137.447C393.166 137.447 393.596 137.438 393.936 137.42C394.276 137.385 394.598 137.34 394.903 137.286V143.758C394.133 144.009 393.327 144.197 392.486 144.322C391.644 144.465 390.749 144.537 389.8 144.537C387.867 144.537 386.211 144.233 384.832 143.624C383.471 143.015 382.433 142.057 381.717 140.75C381.001 139.444 380.643 137.743 380.643 135.648V107.718ZM407.632 114.942V144H398.555V114.942H407.632ZM398.018 107.45C398.018 106.161 398.484 105.104 399.415 104.281C400.346 103.457 401.554 103.045 403.04 103.045C404.526 103.045 405.735 103.457 406.666 104.281C407.597 105.104 408.062 106.161 408.062 107.45C408.062 108.739 407.597 109.795 406.666 110.619C405.735 111.442 404.526 111.854 403.04 111.854C401.554 111.854 400.346 111.442 399.415 110.619C398.484 109.795 398.018 108.739 398.018 107.45ZM425.491 137.555C426.333 137.555 427.049 137.403 427.64 137.098C428.248 136.776 428.705 136.328 429.009 135.755C429.332 135.165 429.484 134.457 429.466 133.634H437.979C437.997 135.818 437.46 137.734 436.368 139.381C435.293 141.01 433.825 142.281 431.963 143.194C430.119 144.09 428.034 144.537 425.706 144.537C423.432 144.537 421.445 144.17 419.744 143.436C418.043 142.684 416.62 141.646 415.474 140.321C414.346 138.978 413.496 137.411 412.923 135.621C412.368 133.831 412.09 131.888 412.09 129.793V129.176C412.09 127.081 412.368 125.139 412.923 123.348C413.496 121.54 414.346 119.973 415.474 118.648C416.62 117.306 418.034 116.267 419.717 115.533C421.418 114.781 423.396 114.405 425.652 114.405C428.069 114.405 430.2 114.862 432.044 115.775C433.906 116.688 435.365 118.013 436.421 119.75C437.478 121.486 437.997 123.59 437.979 126.061H429.466C429.484 125.183 429.349 124.396 429.063 123.697C428.777 122.999 428.329 122.444 427.72 122.032C427.129 121.603 426.368 121.388 425.438 121.388C424.507 121.388 423.755 121.594 423.182 122.005C422.609 122.417 422.17 122.99 421.866 123.724C421.579 124.44 421.382 125.264 421.275 126.195C421.185 127.126 421.141 128.119 421.141 129.176V129.793C421.141 130.868 421.185 131.879 421.275 132.828C421.382 133.759 421.588 134.583 421.893 135.299C422.197 135.997 422.636 136.552 423.208 136.964C423.781 137.358 424.542 137.555 425.491 137.555ZM457.073 135.836C457.073 135.335 456.903 134.905 456.563 134.547C456.241 134.171 455.668 133.831 454.844 133.526C454.021 133.204 452.866 132.882 451.38 132.56C449.965 132.255 448.632 131.852 447.378 131.351C446.143 130.85 445.06 130.241 444.129 129.525C443.198 128.809 442.464 127.958 441.927 126.974C441.408 125.989 441.148 124.861 441.148 123.59C441.148 122.354 441.408 121.191 441.927 120.099C442.464 118.989 443.243 118.013 444.263 117.171C445.302 116.312 446.564 115.641 448.05 115.157C449.536 114.656 451.228 114.405 453.125 114.405C455.739 114.405 457.995 114.808 459.893 115.614C461.791 116.402 463.25 117.512 464.271 118.944C465.309 120.358 465.828 121.996 465.828 123.858H456.778C456.778 123.124 456.653 122.498 456.402 121.979C456.169 121.459 455.784 121.065 455.247 120.797C454.71 120.51 453.994 120.367 453.099 120.367C452.472 120.367 451.899 120.484 451.38 120.716C450.879 120.949 450.476 121.271 450.171 121.683C449.867 122.095 449.715 122.578 449.715 123.133C449.715 123.527 449.804 123.885 449.983 124.208C450.18 124.512 450.476 124.798 450.87 125.067C451.264 125.318 451.765 125.55 452.374 125.765C452.982 125.962 453.716 126.141 454.576 126.302C456.527 126.66 458.353 127.171 460.054 127.833C461.755 128.495 463.134 129.435 464.19 130.653C465.264 131.87 465.801 133.508 465.801 135.567C465.801 136.856 465.506 138.047 464.915 139.139C464.324 140.213 463.474 141.162 462.364 141.986C461.254 142.792 459.92 143.418 458.362 143.866C456.805 144.313 455.05 144.537 453.099 144.537C450.324 144.537 447.978 144.045 446.062 143.06C444.147 142.057 442.697 140.804 441.712 139.3C440.745 137.778 440.262 136.239 440.262 134.681H448.694C448.73 135.576 448.945 136.31 449.339 136.883C449.751 137.456 450.297 137.877 450.977 138.146C451.657 138.414 452.445 138.548 453.34 138.548C454.164 138.548 454.844 138.432 455.381 138.199C455.936 137.966 456.357 137.653 456.644 137.259C456.93 136.847 457.073 136.373 457.073 135.836Z" fill="black"/>
<path d="M114.473 55.1172V80H109.346L99.3486 63.3203V80H94.2217V55.1172H99.3486L109.363 71.814V55.1172H114.473ZM128.606 75.8301V67.5928C128.606 67.0003 128.51 66.4933 128.316 66.0718C128.122 65.6388 127.82 65.3027 127.41 65.0635C127.011 64.8242 126.493 64.7046 125.855 64.7046C125.308 64.7046 124.835 64.8014 124.437 64.9951C124.038 65.1774 123.73 65.4451 123.514 65.7983C123.297 66.1401 123.189 66.5446 123.189 67.0117H118.267C118.267 66.2256 118.449 65.4793 118.814 64.7729C119.179 64.0666 119.708 63.4456 120.403 62.9102C121.098 62.3633 121.924 61.936 122.881 61.6284C123.85 61.3208 124.932 61.167 126.128 61.167C127.564 61.167 128.84 61.4062 129.957 61.8848C131.073 62.3633 131.95 63.0811 132.588 64.0381C133.238 64.9951 133.562 66.1914 133.562 67.627V75.5396C133.562 76.5535 133.625 77.3853 133.75 78.0347C133.876 78.6727 134.058 79.231 134.297 79.7095V80H129.324C129.085 79.4987 128.903 78.8721 128.777 78.1201C128.663 77.3568 128.606 76.5934 128.606 75.8301ZM129.256 68.7378L129.29 71.5234H126.539C125.889 71.5234 125.325 71.5975 124.847 71.7456C124.368 71.8937 123.975 72.1045 123.667 72.3779C123.36 72.64 123.132 72.9476 122.984 73.3008C122.847 73.654 122.779 74.0413 122.779 74.4629C122.779 74.8844 122.876 75.2661 123.069 75.6079C123.263 75.9383 123.542 76.2004 123.907 76.394C124.271 76.5763 124.699 76.6675 125.188 76.6675C125.929 76.6675 126.573 76.5194 127.12 76.2231C127.667 75.9269 128.088 75.5623 128.384 75.1294C128.692 74.6965 128.851 74.2863 128.863 73.8989L130.162 75.9839C129.979 76.451 129.729 76.9352 129.41 77.4365C129.102 77.9378 128.709 78.4106 128.23 78.855C127.752 79.2879 127.177 79.6468 126.504 79.9316C125.832 80.2051 125.035 80.3418 124.112 80.3418C122.938 80.3418 121.873 80.1082 120.916 79.6411C119.97 79.1626 119.218 78.5075 118.66 77.6758C118.113 76.8327 117.84 75.8757 117.84 74.8047C117.84 73.8363 118.022 72.9761 118.387 72.2241C118.751 71.4722 119.287 70.8398 119.993 70.3271C120.711 69.8031 121.605 69.41 122.676 69.1479C123.747 68.8745 124.989 68.7378 126.402 68.7378H129.256ZM148.277 75.9668V53.75H153.233V80H148.772L148.277 75.9668ZM136.587 70.9766V70.6177C136.587 69.2049 136.747 67.9232 137.066 66.7725C137.385 65.6104 137.852 64.6134 138.467 63.7817C139.083 62.95 139.84 62.3063 140.74 61.8506C141.64 61.3949 142.666 61.167 143.816 61.167C144.899 61.167 145.844 61.3949 146.653 61.8506C147.474 62.3063 148.169 62.9557 148.738 63.7988C149.319 64.6305 149.786 65.616 150.14 66.7554C150.493 67.8833 150.749 69.1195 150.909 70.4639V71.25C150.749 72.5374 150.493 73.7337 150.14 74.8389C149.786 75.944 149.319 76.9124 148.738 77.7441C148.169 78.5645 147.474 79.2025 146.653 79.6582C145.833 80.1139 144.876 80.3418 143.782 80.3418C142.632 80.3418 141.606 80.1082 140.706 79.6411C139.817 79.174 139.065 78.5189 138.45 77.6758C137.846 76.8327 137.385 75.8415 137.066 74.7021C136.747 73.5628 136.587 72.321 136.587 70.9766ZM141.509 70.6177V70.9766C141.509 71.7399 141.566 72.452 141.68 73.1128C141.806 73.7736 142.005 74.3604 142.278 74.873C142.563 75.3743 142.928 75.7674 143.372 76.0522C143.828 76.3257 144.38 76.4624 145.03 76.4624C145.873 76.4624 146.568 76.2744 147.115 75.8984C147.662 75.5111 148.077 74.9813 148.362 74.3091C148.659 73.6369 148.829 72.8621 148.875 71.9849V69.7461C148.841 69.0283 148.738 68.3846 148.567 67.8149C148.408 67.2339 148.169 66.7383 147.85 66.3281C147.542 65.918 147.155 65.599 146.688 65.3711C146.232 65.1432 145.691 65.0293 145.064 65.0293C144.426 65.0293 143.879 65.1774 143.423 65.4736C142.968 65.7585 142.597 66.1515 142.312 66.6528C142.039 67.1541 141.834 67.7466 141.697 68.4302C141.572 69.1024 141.509 69.8315 141.509 70.6177ZM162.273 61.5088V80H157.334V61.5088H162.273ZM157.027 56.6895C157.027 55.9717 157.278 55.3792 157.779 54.9121C158.28 54.445 158.952 54.2114 159.795 54.2114C160.627 54.2114 161.294 54.445 161.795 54.9121C162.308 55.3792 162.564 55.9717 162.564 56.6895C162.564 57.4072 162.308 57.9997 161.795 58.4668C161.294 58.9339 160.627 59.1675 159.795 59.1675C158.952 59.1675 158.28 58.9339 157.779 58.4668C157.278 57.9997 157.027 57.4072 157.027 56.6895ZM171.263 65.3369V80H166.324V61.5088H170.955L171.263 65.3369ZM170.579 70.105H169.212C169.212 68.8175 169.366 67.6326 169.673 66.5503C169.992 65.4565 170.454 64.5109 171.058 63.7134C171.673 62.9045 172.431 62.2778 173.331 61.8335C174.231 61.3892 175.273 61.167 176.458 61.167C177.278 61.167 178.03 61.2923 178.714 61.543C179.397 61.7822 179.984 62.1639 180.474 62.688C180.975 63.2007 181.363 63.8729 181.636 64.7046C181.91 65.5249 182.046 66.5104 182.046 67.6611V80H177.125V68.208C177.125 67.3649 177.011 66.7155 176.783 66.2598C176.555 65.804 176.23 65.485 175.809 65.3027C175.398 65.1204 174.903 65.0293 174.322 65.0293C173.684 65.0293 173.125 65.1603 172.647 65.4224C172.18 65.6844 171.792 66.049 171.485 66.5161C171.177 66.9718 170.949 67.5073 170.801 68.1226C170.653 68.7378 170.579 69.3986 170.579 70.105ZM181.585 69.541L179.825 69.7632C179.825 68.5555 179.973 67.4333 180.269 66.3965C180.577 65.3597 181.027 64.4482 181.619 63.6621C182.223 62.876 182.969 62.2664 183.858 61.8335C184.747 61.3892 185.772 61.167 186.934 61.167C187.823 61.167 188.632 61.298 189.361 61.5601C190.09 61.8107 190.711 62.2152 191.224 62.7734C191.748 63.3203 192.146 64.0381 192.42 64.9268C192.705 65.8154 192.847 66.9035 192.847 68.1909V80H187.908V68.1909C187.908 67.3364 187.794 66.687 187.566 66.2427C187.35 65.7869 187.031 65.4736 186.609 65.3027C186.199 65.1204 185.709 65.0293 185.14 65.0293C184.547 65.0293 184.029 65.1489 183.584 65.3882C183.14 65.616 182.77 65.9351 182.474 66.3452C182.177 66.7554 181.955 67.2339 181.807 67.7808C181.659 68.3162 181.585 68.903 181.585 69.541ZM225.933 55.1172V80H220.806L210.809 63.3203V80H205.682V55.1172H210.809L220.823 71.814V55.1172H225.933ZM240.066 75.8301V67.5928C240.066 67.0003 239.97 66.4933 239.776 66.0718C239.582 65.6388 239.28 65.3027 238.87 65.0635C238.471 64.8242 237.953 64.7046 237.315 64.7046C236.768 64.7046 236.295 64.8014 235.896 64.9951C235.498 65.1774 235.19 65.4451 234.974 65.7983C234.757 66.1401 234.649 66.5446 234.649 67.0117H229.727C229.727 66.2256 229.909 65.4793 230.274 64.7729C230.639 64.0666 231.168 63.4456 231.863 62.9102C232.558 62.3633 233.384 61.936 234.341 61.6284C235.31 61.3208 236.392 61.167 237.588 61.167C239.024 61.167 240.3 61.4062 241.417 61.8848C242.533 62.3633 243.41 63.0811 244.048 64.0381C244.698 64.9951 245.022 66.1914 245.022 67.627V75.5396C245.022 76.5535 245.085 77.3853 245.21 78.0347C245.336 78.6727 245.518 79.231 245.757 79.7095V80H240.784C240.545 79.4987 240.363 78.8721 240.237 78.1201C240.123 77.3568 240.066 76.5934 240.066 75.8301ZM240.716 68.7378L240.75 71.5234H237.999C237.349 71.5234 236.785 71.5975 236.307 71.7456C235.828 71.8937 235.435 72.1045 235.127 72.3779C234.82 72.64 234.592 72.9476 234.444 73.3008C234.307 73.654 234.239 74.0413 234.239 74.4629C234.239 74.8844 234.336 75.2661 234.529 75.6079C234.723 75.9383 235.002 76.2004 235.367 76.394C235.731 76.5763 236.159 76.6675 236.648 76.6675C237.389 76.6675 238.033 76.5194 238.58 76.2231C239.126 75.9269 239.548 75.5623 239.844 75.1294C240.152 74.6965 240.311 74.2863 240.323 73.8989L241.622 75.9839C241.439 76.451 241.189 76.9352 240.87 77.4365C240.562 77.9378 240.169 78.4106 239.69 78.855C239.212 79.2879 238.637 79.6468 237.964 79.9316C237.292 80.2051 236.495 80.3418 235.572 80.3418C234.398 80.3418 233.333 80.1082 232.376 79.6411C231.43 79.1626 230.678 78.5075 230.12 77.6758C229.573 76.8327 229.3 75.8757 229.3 74.8047C229.3 73.8363 229.482 72.9761 229.847 72.2241C230.211 71.4722 230.747 70.8398 231.453 70.3271C232.171 69.8031 233.065 69.41 234.136 69.1479C235.207 68.8745 236.449 68.7378 237.862 68.7378H240.716ZM253.619 53.75V80H248.697V53.75H253.619ZM252.918 70.105H251.568C251.579 68.8175 251.75 67.6326 252.081 66.5503C252.411 65.4565 252.884 64.5109 253.499 63.7134C254.114 62.9045 254.849 62.2778 255.704 61.8335C256.569 61.3892 257.527 61.167 258.575 61.167C259.486 61.167 260.312 61.298 261.053 61.5601C261.805 61.8107 262.448 62.2209 262.984 62.7905C263.531 63.3488 263.952 64.0837 264.249 64.9951C264.545 65.9066 264.693 67.0117 264.693 68.3105V80H259.737V68.2764C259.737 67.4561 259.617 66.8123 259.378 66.3452C259.15 65.8667 258.814 65.5306 258.37 65.3369C257.937 65.1318 257.401 65.0293 256.763 65.0293C256.057 65.0293 255.453 65.1603 254.952 65.4224C254.462 65.6844 254.069 66.049 253.772 66.5161C253.476 66.9718 253.26 67.5073 253.123 68.1226C252.986 68.7378 252.918 69.3986 252.918 70.105ZM273.631 53.75V80H268.692V53.75H273.631ZM286.209 80.3418C284.773 80.3418 283.486 80.1139 282.347 79.6582C281.207 79.1911 280.239 78.5474 279.441 77.7271C278.655 76.9067 278.051 75.9554 277.63 74.873C277.208 73.7793 276.998 72.6172 276.998 71.3867V70.7031C276.998 69.3018 277.197 68.02 277.596 66.8579C277.994 65.6958 278.564 64.6875 279.305 63.833C280.057 62.9785 280.968 62.3234 282.039 61.8677C283.11 61.4006 284.318 61.167 285.662 61.167C286.972 61.167 288.134 61.3835 289.148 61.8164C290.162 62.2493 291.011 62.8646 291.695 63.6621C292.39 64.4596 292.914 65.4167 293.267 66.5332C293.62 67.6383 293.797 68.8688 293.797 70.2246V72.2754H279.1V68.9941H288.96V68.6182C288.96 67.9346 288.835 67.325 288.584 66.7896C288.345 66.2427 287.981 65.8097 287.491 65.4907C287.001 65.1717 286.374 65.0122 285.611 65.0122C284.961 65.0122 284.403 65.1546 283.936 65.4395C283.469 65.7243 283.087 66.123 282.791 66.6357C282.506 67.1484 282.29 67.7523 282.142 68.4473C282.005 69.1309 281.937 69.8828 281.937 70.7031V71.3867C281.937 72.1273 282.039 72.8109 282.244 73.4375C282.461 74.0641 282.763 74.6053 283.15 75.061C283.549 75.5168 284.027 75.87 284.585 76.1206C285.155 76.3713 285.799 76.4966 286.517 76.4966C287.405 76.4966 288.231 76.3257 288.995 75.9839C289.769 75.6307 290.436 75.1009 290.994 74.3945L293.387 76.9922C292.999 77.5505 292.47 78.0859 291.797 78.5986C291.137 79.1113 290.339 79.5329 289.405 79.8633C288.471 80.1823 287.405 80.3418 286.209 80.3418Z" fill="#888888"/>
<rect x="92" y="181" width="1179" height="80" rx="13.3333" fill="#CCCCCC"/>
<rect x="107" y="196.333" width="208" height="49.3333" rx="4.66667" fill="black" stroke="#888888" stroke-width="4"/>
<path d="M184.5 213.167H190.469C191.635 213.167 192.649 213.34 193.51 213.687C194.372 214.035 195.035 214.549 195.5 215.229C195.972 215.91 196.208 216.75 196.208 217.75C196.208 218.618 196.073 219.344 195.802 219.927C195.531 220.51 195.153 220.993 194.667 221.375C194.188 221.75 193.628 222.059 192.99 222.302L191.792 222.979H186.781L186.76 220.156H190.469C190.934 220.156 191.319 220.073 191.625 219.906C191.931 219.74 192.16 219.503 192.313 219.198C192.472 218.885 192.552 218.514 192.552 218.083C192.552 217.646 192.472 217.271 192.313 216.958C192.153 216.646 191.917 216.406 191.604 216.24C191.299 216.073 190.92 215.99 190.469 215.99H188.156V228.333H184.5V213.167ZM192.802 228.333L189.448 221.625L193.323 221.604L196.719 228.177V228.333H192.802ZM203.708 228.542C202.792 228.542 201.972 228.399 201.25 228.115C200.528 227.823 199.917 227.424 199.417 226.917C198.924 226.41 198.545 225.826 198.281 225.167C198.024 224.507 197.896 223.809 197.896 223.073V222.677C197.896 221.851 198.01 221.087 198.24 220.385C198.469 219.677 198.809 219.059 199.26 218.531C199.712 218.003 200.278 217.594 200.958 217.302C201.639 217.003 202.431 216.854 203.333 216.854C204.132 216.854 204.847 216.983 205.479 217.24C206.111 217.497 206.646 217.865 207.083 218.344C207.528 218.823 207.865 219.403 208.094 220.083C208.33 220.764 208.448 221.528 208.448 222.375V223.802H199.24V221.604H205.021V221.333C205.028 220.958 204.962 220.639 204.823 220.375C204.691 220.111 204.497 219.91 204.24 219.771C203.983 219.632 203.67 219.562 203.302 219.562C202.92 219.562 202.604 219.646 202.354 219.812C202.111 219.979 201.92 220.208 201.781 220.5C201.649 220.785 201.556 221.115 201.5 221.49C201.444 221.865 201.417 222.26 201.417 222.677V223.073C201.417 223.49 201.472 223.868 201.583 224.208C201.701 224.549 201.868 224.84 202.083 225.083C202.306 225.319 202.569 225.503 202.875 225.635C203.187 225.767 203.542 225.833 203.937 225.833C204.417 225.833 204.889 225.743 205.354 225.562C205.819 225.382 206.219 225.083 206.552 224.667L208.146 226.562C207.917 226.889 207.59 227.205 207.167 227.51C206.75 227.816 206.25 228.066 205.667 228.26C205.083 228.448 204.431 228.542 203.708 228.542ZM215.729 225.5V220.854C215.729 220.535 215.684 220.26 215.594 220.031C215.503 219.802 215.361 219.625 215.167 219.5C214.972 219.368 214.712 219.302 214.385 219.302C214.122 219.302 213.896 219.347 213.708 219.437C213.521 219.528 213.378 219.663 213.281 219.844C213.184 220.024 213.135 220.253 213.135 220.531H209.625C209.625 220.01 209.74 219.528 209.969 219.083C210.205 218.632 210.538 218.24 210.969 217.906C211.406 217.573 211.927 217.316 212.531 217.135C213.142 216.948 213.823 216.854 214.573 216.854C215.469 216.854 216.267 217.003 216.969 217.302C217.677 217.601 218.236 218.049 218.646 218.646C219.056 219.236 219.26 219.979 219.26 220.875V225.49C219.26 226.226 219.302 226.785 219.385 227.167C219.469 227.542 219.587 227.872 219.74 228.156V228.333H216.219C216.052 227.986 215.927 227.562 215.844 227.062C215.767 226.556 215.729 226.035 215.729 225.5ZM216.156 221.448L216.177 223.323H214.625C214.299 223.323 214.021 223.368 213.792 223.458C213.569 223.549 213.389 223.674 213.25 223.833C213.118 223.986 213.021 224.16 212.958 224.354C212.903 224.549 212.875 224.753 212.875 224.969C212.875 225.177 212.924 225.365 213.021 225.531C213.125 225.691 213.264 225.816 213.438 225.906C213.611 225.997 213.806 226.042 214.021 226.042C214.41 226.042 214.74 225.969 215.01 225.823C215.288 225.67 215.5 225.486 215.646 225.271C215.792 225.056 215.865 224.854 215.865 224.667L216.635 226.104C216.497 226.382 216.337 226.663 216.156 226.948C215.983 227.233 215.764 227.497 215.5 227.74C215.243 227.976 214.927 228.17 214.552 228.323C214.177 228.469 213.722 228.542 213.188 228.542C212.493 228.542 211.854 228.399 211.271 228.115C210.694 227.83 210.233 227.434 209.885 226.927C209.538 226.413 209.365 225.823 209.365 225.156C209.365 224.573 209.469 224.052 209.677 223.594C209.892 223.135 210.215 222.747 210.646 222.427C211.076 222.108 211.625 221.865 212.292 221.698C212.958 221.531 213.743 221.448 214.646 221.448H216.156ZM225.969 225.833C226.295 225.833 226.573 225.774 226.802 225.656C227.038 225.531 227.215 225.358 227.333 225.135C227.458 224.906 227.517 224.632 227.51 224.312H230.813C230.819 225.16 230.611 225.903 230.188 226.542C229.771 227.174 229.201 227.667 228.479 228.021C227.764 228.368 226.955 228.542 226.052 228.542C225.17 228.542 224.399 228.399 223.74 228.115C223.08 227.823 222.528 227.42 222.083 226.906C221.646 226.385 221.316 225.778 221.094 225.083C220.878 224.389 220.771 223.635 220.771 222.823V222.583C220.771 221.771 220.878 221.017 221.094 220.323C221.316 219.622 221.646 219.014 222.083 218.5C222.528 217.979 223.076 217.576 223.729 217.292C224.389 217 225.156 216.854 226.031 216.854C226.969 216.854 227.795 217.031 228.51 217.385C229.233 217.74 229.799 218.253 230.208 218.927C230.618 219.601 230.819 220.417 230.813 221.375H227.51C227.517 221.035 227.465 220.729 227.354 220.458C227.243 220.187 227.069 219.972 226.833 219.812C226.604 219.646 226.309 219.562 225.948 219.562C225.587 219.562 225.295 219.642 225.073 219.802C224.851 219.962 224.681 220.184 224.563 220.469C224.451 220.747 224.375 221.066 224.333 221.427C224.299 221.788 224.281 222.174 224.281 222.583V222.823C224.281 223.24 224.299 223.632 224.333 224C224.375 224.361 224.455 224.681 224.573 224.958C224.691 225.229 224.861 225.444 225.083 225.604C225.306 225.757 225.601 225.833 225.969 225.833ZM238.25 217.062V219.5H231.458V217.062H238.25ZM232.885 214.26H236.396V224.656C236.396 224.955 236.431 225.187 236.5 225.354C236.569 225.514 236.688 225.628 236.854 225.698C237.028 225.76 237.257 225.792 237.542 225.792C237.743 225.792 237.91 225.788 238.042 225.781C238.174 225.767 238.299 225.75 238.417 225.729V228.24C238.118 228.337 237.806 228.41 237.479 228.458C237.153 228.514 236.806 228.542 236.438 228.542C235.688 228.542 235.045 228.424 234.51 228.187C233.983 227.951 233.58 227.58 233.302 227.073C233.024 226.566 232.885 225.906 232.885 225.094V214.26Z" fill="white"/>
<rect x="339" y="196.333" width="208" height="49.3333" rx="4.66667" fill="black" stroke="#888888" stroke-width="4"/>
<path d="M419.937 213.167V228.333H416.292L410.927 218.896V228.333H407.271V213.167H410.927L416.292 222.604V213.167H419.937ZM421.646 222.812V222.594C421.646 221.767 421.764 221.007 422 220.312C422.236 219.611 422.583 219.003 423.042 218.49C423.5 217.976 424.066 217.576 424.74 217.292C425.413 217 426.191 216.854 427.073 216.854C427.962 216.854 428.743 217 429.417 217.292C430.097 217.576 430.667 217.976 431.125 218.49C431.583 219.003 431.931 219.611 432.167 220.312C432.403 221.007 432.521 221.767 432.521 222.594V222.812C432.521 223.632 432.403 224.392 432.167 225.094C431.931 225.788 431.583 226.396 431.125 226.917C430.667 227.431 430.101 227.83 429.427 228.115C428.753 228.399 427.976 228.542 427.094 228.542C426.212 228.542 425.431 228.399 424.75 228.115C424.069 227.83 423.5 227.431 423.042 226.917C422.583 226.396 422.236 225.788 422 225.094C421.764 224.392 421.646 223.632 421.646 222.812ZM425.156 222.594V222.812C425.156 223.236 425.187 223.632 425.25 224C425.312 224.368 425.417 224.691 425.562 224.969C425.708 225.24 425.906 225.451 426.156 225.604C426.406 225.757 426.719 225.833 427.094 225.833C427.462 225.833 427.767 225.757 428.01 225.604C428.26 225.451 428.458 225.24 428.604 224.969C428.75 224.691 428.854 224.368 428.917 224C428.979 223.632 429.01 223.236 429.01 222.812V222.594C429.01 222.184 428.979 221.799 428.917 221.437C428.854 221.069 428.75 220.747 428.604 220.469C428.458 220.184 428.26 219.962 428.01 219.802C427.76 219.642 427.448 219.562 427.073 219.562C426.705 219.562 426.396 219.642 426.146 219.802C425.903 219.962 425.708 220.184 425.562 220.469C425.417 220.747 425.312 221.069 425.25 221.437C425.187 221.799 425.156 222.184 425.156 222.594ZM440.563 225.75V212.333H444.094V228.333H440.927L440.563 225.75ZM433.646 222.833V222.615C433.646 221.76 433.74 220.983 433.927 220.281C434.115 219.573 434.392 218.965 434.76 218.458C435.128 217.944 435.587 217.549 436.135 217.271C436.684 216.993 437.316 216.854 438.031 216.854C438.67 216.854 439.229 217.003 439.708 217.302C440.188 217.594 440.597 218.003 440.938 218.531C441.278 219.059 441.556 219.677 441.771 220.385C441.986 221.087 442.149 221.844 442.26 222.656V222.917C442.149 223.681 441.986 224.403 441.771 225.083C441.556 225.757 441.278 226.354 440.938 226.875C440.597 227.396 440.184 227.806 439.698 228.104C439.219 228.396 438.656 228.542 438.01 228.542C437.295 228.542 436.663 228.399 436.115 228.115C435.573 227.83 435.118 227.431 434.75 226.917C434.389 226.403 434.115 225.799 433.927 225.104C433.74 224.41 433.646 223.653 433.646 222.833ZM437.156 222.615V222.833C437.156 223.257 437.184 223.649 437.24 224.01C437.295 224.372 437.389 224.691 437.521 224.969C437.66 225.24 437.84 225.451 438.063 225.604C438.292 225.757 438.573 225.833 438.906 225.833C439.358 225.833 439.729 225.726 440.021 225.51C440.319 225.295 440.538 224.99 440.677 224.594C440.823 224.198 440.885 223.733 440.865 223.198V222.375C440.878 221.917 440.847 221.514 440.771 221.167C440.694 220.812 440.573 220.517 440.406 220.281C440.247 220.045 440.042 219.868 439.792 219.75C439.549 219.625 439.26 219.562 438.927 219.562C438.601 219.562 438.323 219.639 438.094 219.792C437.872 219.944 437.691 220.16 437.552 220.437C437.413 220.708 437.313 221.031 437.25 221.406C437.188 221.774 437.156 222.177 437.156 222.615ZM451.542 228.542C450.625 228.542 449.806 228.399 449.083 228.115C448.361 227.823 447.75 227.424 447.25 226.917C446.757 226.41 446.378 225.826 446.115 225.167C445.858 224.507 445.729 223.809 445.729 223.073V222.677C445.729 221.851 445.844 221.087 446.073 220.385C446.302 219.677 446.642 219.059 447.094 218.531C447.545 218.003 448.111 217.594 448.792 217.302C449.472 217.003 450.264 216.854 451.167 216.854C451.965 216.854 452.681 216.983 453.313 217.24C453.944 217.497 454.479 217.865 454.917 218.344C455.361 218.823 455.698 219.403 455.927 220.083C456.163 220.764 456.281 221.528 456.281 222.375V223.802H447.073V221.604H452.854V221.333C452.861 220.958 452.795 220.639 452.656 220.375C452.524 220.111 452.33 219.91 452.073 219.771C451.816 219.632 451.503 219.562 451.135 219.562C450.753 219.562 450.438 219.646 450.188 219.812C449.944 219.979 449.753 220.208 449.615 220.5C449.483 220.785 449.389 221.115 449.333 221.49C449.278 221.865 449.25 222.26 449.25 222.677V223.073C449.25 223.49 449.306 223.868 449.417 224.208C449.535 224.549 449.701 224.84 449.917 225.083C450.139 225.319 450.403 225.503 450.708 225.635C451.021 225.767 451.375 225.833 451.771 225.833C452.25 225.833 452.722 225.743 453.188 225.562C453.653 225.382 454.052 225.083 454.385 224.667L455.979 226.562C455.75 226.889 455.424 227.205 455 227.51C454.583 227.816 454.083 228.066 453.5 228.26C452.917 228.448 452.264 228.542 451.542 228.542ZM457.938 226.687C457.938 226.187 458.118 225.771 458.479 225.437C458.84 225.097 459.306 224.927 459.875 224.927C460.451 224.927 460.917 225.097 461.271 225.437C461.632 225.771 461.813 226.187 461.813 226.687C461.813 227.187 461.632 227.608 461.271 227.948C460.917 228.281 460.451 228.448 459.875 228.448C459.306 228.448 458.84 228.281 458.479 227.948C458.118 227.608 457.938 227.187 457.938 226.687ZM464.427 217.062H467.948V228.698C467.948 229.601 467.774 230.361 467.427 230.979C467.08 231.604 466.583 232.076 465.937 232.396C465.292 232.722 464.521 232.885 463.625 232.885C463.326 232.885 463.052 232.872 462.802 232.844C462.545 232.823 462.264 232.778 461.958 232.708V230.052C462.139 230.08 462.306 230.101 462.458 230.115C462.611 230.135 462.778 230.146 462.958 230.146C463.278 230.146 463.545 230.094 463.76 229.99C463.976 229.885 464.139 229.726 464.25 229.51C464.368 229.295 464.427 229.024 464.427 228.698V217.062ZM464.167 214.156C464.167 213.656 464.347 213.247 464.708 212.927C465.069 212.608 465.538 212.448 466.115 212.448C466.691 212.448 467.16 212.608 467.521 212.927C467.882 213.247 468.062 213.656 468.062 214.156C468.062 214.656 467.882 215.066 467.521 215.385C467.16 215.705 466.691 215.865 466.115 215.865C465.538 215.865 465.069 215.705 464.708 215.385C464.347 215.066 464.167 214.656 464.167 214.156ZM475.844 225.167C475.844 224.972 475.778 224.806 475.646 224.667C475.521 224.521 475.299 224.389 474.979 224.271C474.66 224.146 474.212 224.021 473.635 223.896C473.087 223.778 472.569 223.622 472.083 223.427C471.604 223.233 471.184 222.997 470.823 222.719C470.462 222.441 470.177 222.111 469.969 221.729C469.767 221.347 469.667 220.91 469.667 220.417C469.667 219.937 469.767 219.486 469.969 219.062C470.177 218.632 470.479 218.253 470.875 217.927C471.278 217.594 471.767 217.333 472.344 217.146C472.92 216.951 473.576 216.854 474.312 216.854C475.326 216.854 476.201 217.01 476.937 217.323C477.674 217.628 478.24 218.059 478.635 218.615C479.038 219.163 479.24 219.799 479.24 220.521H475.729C475.729 220.236 475.681 219.993 475.583 219.792C475.493 219.59 475.344 219.437 475.135 219.333C474.927 219.222 474.649 219.167 474.302 219.167C474.059 219.167 473.837 219.212 473.635 219.302C473.441 219.392 473.285 219.517 473.167 219.677C473.049 219.837 472.99 220.024 472.99 220.24C472.99 220.392 473.024 220.531 473.094 220.656C473.17 220.774 473.285 220.885 473.437 220.99C473.59 221.087 473.785 221.177 474.021 221.26C474.257 221.337 474.542 221.406 474.875 221.469C475.632 221.608 476.34 221.806 477 222.062C477.66 222.319 478.194 222.684 478.604 223.156C479.021 223.628 479.229 224.264 479.229 225.062C479.229 225.562 479.115 226.024 478.885 226.448C478.656 226.865 478.326 227.233 477.896 227.552C477.465 227.865 476.948 228.108 476.344 228.281C475.74 228.455 475.059 228.542 474.302 228.542C473.226 228.542 472.316 228.351 471.573 227.969C470.83 227.58 470.267 227.094 469.885 226.51C469.51 225.92 469.323 225.323 469.323 224.719H472.594C472.608 225.066 472.691 225.351 472.844 225.573C473.003 225.795 473.215 225.958 473.479 226.062C473.743 226.167 474.049 226.219 474.396 226.219C474.715 226.219 474.979 226.174 475.187 226.083C475.403 225.993 475.566 225.872 475.677 225.719C475.788 225.559 475.844 225.375 475.844 225.167Z" fill="white"/>
<rect x="571" y="196.333" width="208" height="49.3333" rx="4.66667" fill="black" stroke="black" stroke-width="4"/>
<path d="M632.438 213.167H635.417L638.802 223.719L642.188 213.167H645.167L640.01 228.333H637.594L632.438 213.167ZM630.625 213.167H633.708L634.281 224.792V228.333H630.625V213.167ZM643.896 213.167H646.99V228.333H643.323V224.792L643.896 213.167ZM648.729 222.812V222.594C648.729 221.767 648.847 221.007 649.083 220.312C649.319 219.611 649.667 219.003 650.125 218.49C650.583 217.976 651.149 217.576 651.823 217.292C652.497 217 653.274 216.854 654.156 216.854C655.045 216.854 655.826 217 656.5 217.292C657.181 217.576 657.75 217.976 658.208 218.49C658.667 219.003 659.014 219.611 659.25 220.312C659.486 221.007 659.604 221.767 659.604 222.594V222.812C659.604 223.632 659.486 224.392 659.25 225.094C659.014 225.788 658.667 226.396 658.208 226.917C657.75 227.431 657.184 227.83 656.51 228.115C655.837 228.399 655.059 228.542 654.177 228.542C653.295 228.542 652.514 228.399 651.833 228.115C651.153 227.83 650.583 227.431 650.125 226.917C649.667 226.396 649.319 225.788 649.083 225.094C648.847 224.392 648.729 223.632 648.729 222.812ZM652.24 222.594V222.812C652.24 223.236 652.271 223.632 652.333 224C652.396 224.368 652.5 224.691 652.646 224.969C652.792 225.24 652.99 225.451 653.24 225.604C653.49 225.757 653.802 225.833 654.177 225.833C654.545 225.833 654.851 225.757 655.094 225.604C655.344 225.451 655.542 225.24 655.688 224.969C655.833 224.691 655.938 224.368 656 224C656.063 223.632 656.094 223.236 656.094 222.812V222.594C656.094 222.184 656.063 221.799 656 221.437C655.938 221.069 655.833 220.747 655.688 220.469C655.542 220.184 655.344 219.962 655.094 219.802C654.844 219.642 654.531 219.562 654.156 219.562C653.788 219.562 653.479 219.642 653.229 219.802C652.986 219.962 652.792 220.184 652.646 220.469C652.5 220.747 652.396 221.069 652.333 221.437C652.271 221.799 652.24 222.184 652.24 222.594ZM664.615 219.469V228.333H661.104V217.062H664.396L664.615 219.469ZM664.198 222.312L663.375 222.333C663.375 221.472 663.479 220.705 663.688 220.031C663.896 219.351 664.191 218.774 664.573 218.302C664.955 217.83 665.41 217.472 665.938 217.229C666.472 216.979 667.066 216.854 667.719 216.854C668.24 216.854 668.715 216.931 669.146 217.083C669.583 217.236 669.958 217.483 670.271 217.823C670.59 218.163 670.833 218.615 671 219.177C671.174 219.733 671.26 220.42 671.26 221.24V228.333H667.729V221.229C667.729 220.778 667.667 220.434 667.542 220.198C667.417 219.955 667.236 219.788 667 219.698C666.764 219.608 666.476 219.562 666.135 219.562C665.774 219.562 665.469 219.632 665.219 219.771C664.969 219.91 664.767 220.104 664.615 220.354C664.469 220.597 664.361 220.885 664.292 221.219C664.229 221.552 664.198 221.917 664.198 222.312ZM680.292 217.062H683.479V227.896C683.479 228.937 683.24 229.819 682.76 230.542C682.281 231.271 681.611 231.823 680.75 232.198C679.896 232.58 678.896 232.771 677.75 232.771C677.243 232.771 676.726 232.705 676.198 232.573C675.67 232.448 675.177 232.26 674.719 232.01C674.26 231.76 673.875 231.451 673.563 231.083L675.031 229.021C675.316 229.34 675.674 229.611 676.104 229.833C676.535 230.062 677.042 230.177 677.625 230.177C678.132 230.177 678.556 230.087 678.896 229.906C679.243 229.726 679.507 229.462 679.688 229.115C679.868 228.774 679.958 228.361 679.958 227.875V219.729L680.292 217.062ZM672.802 222.833V222.615C672.802 221.76 672.906 220.983 673.115 220.281C673.33 219.573 673.635 218.965 674.031 218.458C674.434 217.944 674.92 217.549 675.49 217.271C676.059 216.993 676.701 216.854 677.417 216.854C678.188 216.854 678.819 217.003 679.313 217.302C679.813 217.594 680.212 218.003 680.51 218.531C680.816 219.059 681.052 219.677 681.219 220.385C681.392 221.087 681.538 221.844 681.656 222.656V222.917C681.538 223.681 681.375 224.403 681.167 225.083C680.965 225.757 680.701 226.354 680.375 226.875C680.049 227.396 679.639 227.806 679.146 228.104C678.66 228.396 678.076 228.542 677.396 228.542C676.688 228.542 676.049 228.399 675.479 228.115C674.917 227.83 674.434 227.431 674.031 226.917C673.635 226.403 673.33 225.799 673.115 225.104C672.906 224.41 672.802 223.653 672.802 222.833ZM676.313 222.615V222.833C676.313 223.257 676.351 223.649 676.427 224.01C676.51 224.372 676.635 224.691 676.802 224.969C676.969 225.24 677.174 225.451 677.417 225.604C677.667 225.757 677.958 225.833 678.292 225.833C678.799 225.833 679.208 225.726 679.521 225.51C679.833 225.295 680.059 224.99 680.198 224.594C680.337 224.198 680.396 223.733 680.375 223.198V222.375C680.389 221.917 680.358 221.514 680.281 221.167C680.205 220.812 680.083 220.517 679.917 220.281C679.757 220.045 679.542 219.868 679.271 219.75C679.007 219.625 678.688 219.562 678.313 219.562C677.986 219.562 677.698 219.639 677.448 219.792C677.198 219.944 676.99 220.16 676.823 220.437C676.656 220.708 676.528 221.031 676.438 221.406C676.354 221.774 676.313 222.177 676.313 222.615ZM685.063 222.812V222.594C685.063 221.767 685.181 221.007 685.417 220.312C685.653 219.611 686 219.003 686.458 218.49C686.917 217.976 687.483 217.576 688.156 217.292C688.83 217 689.608 216.854 690.49 216.854C691.378 216.854 692.16 217 692.833 217.292C693.514 217.576 694.083 217.976 694.542 218.49C695 219.003 695.347 219.611 695.583 220.312C695.819 221.007 695.938 221.767 695.938 222.594V222.812C695.938 223.632 695.819 224.392 695.583 225.094C695.347 225.788 695 226.396 694.542 226.917C694.083 227.431 693.517 227.83 692.844 228.115C692.17 228.399 691.392 228.542 690.51 228.542C689.628 228.542 688.847 228.399 688.167 228.115C687.486 227.83 686.917 227.431 686.458 226.917C686 226.396 685.653 225.788 685.417 225.094C685.181 224.392 685.063 223.632 685.063 222.812ZM688.573 222.594V222.812C688.573 223.236 688.604 223.632 688.667 224C688.729 224.368 688.833 224.691 688.979 224.969C689.125 225.24 689.323 225.451 689.573 225.604C689.823 225.757 690.135 225.833 690.51 225.833C690.878 225.833 691.184 225.757 691.427 225.604C691.677 225.451 691.875 225.24 692.021 224.969C692.167 224.691 692.271 224.368 692.333 224C692.396 223.632 692.427 223.236 692.427 222.812V222.594C692.427 222.184 692.396 221.799 692.333 221.437C692.271 221.069 692.167 220.747 692.021 220.469C691.875 220.184 691.677 219.962 691.427 219.802C691.177 219.642 690.865 219.562 690.49 219.562C690.122 219.562 689.813 219.642 689.563 219.802C689.319 219.962 689.125 220.184 688.979 220.469C688.833 220.747 688.729 221.069 688.667 221.437C688.604 221.799 688.573 222.184 688.573 222.594ZM703.979 225.75V212.333H707.51V228.333H704.344L703.979 225.75ZM697.063 222.833V222.615C697.063 221.76 697.156 220.983 697.344 220.281C697.531 219.573 697.809 218.965 698.177 218.458C698.545 217.944 699.003 217.549 699.552 217.271C700.101 216.993 700.733 216.854 701.448 216.854C702.087 216.854 702.646 217.003 703.125 217.302C703.604 217.594 704.014 218.003 704.354 218.531C704.694 219.059 704.972 219.677 705.188 220.385C705.403 221.087 705.566 221.844 705.677 222.656V222.917C705.566 223.681 705.403 224.403 705.188 225.083C704.972 225.757 704.694 226.354 704.354 226.875C704.014 227.396 703.601 227.806 703.115 228.104C702.635 228.396 702.073 228.542 701.427 228.542C700.712 228.542 700.08 228.399 699.531 228.115C698.99 227.83 698.535 227.431 698.167 226.917C697.806 226.403 697.531 225.799 697.344 225.104C697.156 224.41 697.063 223.653 697.063 222.833ZM700.573 222.615V222.833C700.573 223.257 700.601 223.649 700.656 224.01C700.712 224.372 700.806 224.691 700.938 224.969C701.076 225.24 701.257 225.451 701.479 225.604C701.708 225.757 701.99 225.833 702.323 225.833C702.774 225.833 703.146 225.726 703.438 225.51C703.736 225.295 703.955 224.99 704.094 224.594C704.24 224.198 704.302 223.733 704.281 223.198V222.375C704.295 221.917 704.264 221.514 704.188 221.167C704.111 220.812 703.99 220.517 703.823 220.281C703.663 220.045 703.458 219.868 703.208 219.75C702.965 219.625 702.677 219.562 702.344 219.562C702.017 219.562 701.74 219.639 701.51 219.792C701.288 219.944 701.108 220.16 700.969 220.437C700.83 220.708 700.729 221.031 700.667 221.406C700.604 221.774 700.573 222.177 700.573 222.615ZM709.531 212.333H713.042V225.562L712.677 228.333H709.531V212.333ZM719.958 222.573V222.792C719.958 223.646 719.872 224.424 719.698 225.125C719.524 225.826 719.257 226.434 718.896 226.948C718.535 227.455 718.08 227.847 717.531 228.125C716.983 228.403 716.333 228.542 715.583 228.542C714.903 228.542 714.319 228.396 713.833 228.104C713.347 227.806 712.941 227.396 712.615 226.875C712.288 226.347 712.024 225.74 711.823 225.052C711.622 224.358 711.462 223.615 711.344 222.823V222.562C711.462 221.778 711.622 221.042 711.823 220.354C712.024 219.66 712.288 219.052 712.615 218.531C712.941 218.003 713.344 217.594 713.823 217.302C714.309 217.003 714.889 216.854 715.563 216.854C716.319 216.854 716.972 216.997 717.521 217.281C718.076 217.566 718.535 217.965 718.896 218.479C719.257 218.993 719.524 219.597 719.698 220.292C719.872 220.986 719.958 221.747 719.958 222.573ZM716.448 222.792V222.573C716.448 222.163 716.424 221.778 716.375 221.417C716.326 221.056 716.24 220.736 716.115 220.458C715.99 220.181 715.813 219.962 715.583 219.802C715.354 219.642 715.056 219.562 714.688 219.562C714.313 219.562 713.997 219.625 713.74 219.75C713.49 219.875 713.288 220.056 713.135 220.292C712.99 220.521 712.885 220.806 712.823 221.146C712.76 221.479 712.733 221.858 712.74 222.281V223.104C712.726 223.681 712.778 224.174 712.896 224.583C713.014 224.993 713.219 225.306 713.51 225.521C713.802 225.736 714.201 225.844 714.708 225.844C715.083 225.844 715.385 225.771 715.615 225.625C715.851 225.479 716.028 225.271 716.146 225C716.264 224.729 716.344 224.406 716.385 224.031C716.427 223.656 716.448 223.243 716.448 222.792Z" fill="white"/>
<rect x="803" y="196.333" width="208" height="49.3333" rx="4.66667" fill="black" stroke="black" stroke-width="4"/>
<path d="M868.844 225.521V228.333H860.76V225.521H868.844ZM862.063 213.167V228.333H858.406V213.167H862.063ZM867.802 219.187V221.906H860.76V219.187H867.802ZM868.875 213.167V215.99H860.76V213.167H868.875ZM873.156 217.062L874.74 220.167L876.375 217.062H880.021L877.063 222.552L880.177 228.333H876.5L874.74 225L872.99 228.333H869.313L872.427 222.552L869.479 217.062H873.156ZM884.719 219.229V232.667H881.208V217.062H884.479L884.719 219.229ZM891.635 222.562V222.781C891.635 223.601 891.542 224.361 891.354 225.062C891.167 225.764 890.889 226.375 890.521 226.896C890.153 227.417 889.694 227.823 889.146 228.115C888.604 228.399 887.976 228.542 887.26 228.542C886.587 228.542 886.007 228.392 885.521 228.094C885.035 227.795 884.628 227.382 884.302 226.854C883.976 226.326 883.712 225.722 883.51 225.042C883.309 224.361 883.149 223.642 883.031 222.885V222.604C883.149 221.792 883.309 221.038 883.51 220.344C883.712 219.642 883.976 219.031 884.302 218.51C884.628 217.99 885.031 217.583 885.51 217.292C885.997 217 886.576 216.854 887.25 216.854C887.965 216.854 888.594 216.99 889.135 217.26C889.684 217.531 890.142 217.92 890.51 218.427C890.885 218.927 891.167 219.528 891.354 220.229C891.542 220.931 891.635 221.708 891.635 222.562ZM888.125 222.781V222.562C888.125 222.125 888.094 221.726 888.031 221.365C887.969 220.997 887.868 220.677 887.729 220.406C887.597 220.135 887.42 219.927 887.198 219.781C886.976 219.635 886.701 219.562 886.375 219.562C886 219.562 885.684 219.622 885.427 219.74C885.177 219.851 884.976 220.024 884.823 220.26C884.677 220.49 884.573 220.778 884.51 221.125C884.455 221.465 884.431 221.865 884.438 222.323V223.177C884.424 223.705 884.476 224.17 884.594 224.573C884.712 224.969 884.917 225.278 885.208 225.5C885.5 225.722 885.896 225.833 886.396 225.833C886.729 225.833 887.007 225.757 887.229 225.604C887.451 225.444 887.628 225.226 887.76 224.948C887.892 224.663 887.986 224.337 888.042 223.969C888.097 223.601 888.125 223.205 888.125 222.781ZM896.74 219.854V228.333H893.229V217.062H896.51L896.74 219.854ZM900.073 216.979L900.01 220.24C899.872 220.226 899.684 220.208 899.448 220.187C899.212 220.167 899.014 220.156 898.854 220.156C898.444 220.156 898.09 220.205 897.792 220.302C897.5 220.392 897.257 220.531 897.063 220.719C896.875 220.899 896.736 221.128 896.646 221.406C896.563 221.684 896.524 222.007 896.531 222.375L895.896 221.958C895.896 221.201 895.969 220.514 896.115 219.896C896.267 219.271 896.483 218.733 896.76 218.281C897.038 217.823 897.375 217.472 897.771 217.229C898.167 216.979 898.611 216.854 899.104 216.854C899.278 216.854 899.448 216.865 899.615 216.885C899.788 216.906 899.941 216.937 900.073 216.979ZM906.531 228.542C905.615 228.542 904.795 228.399 904.073 228.115C903.351 227.823 902.74 227.424 902.24 226.917C901.747 226.41 901.368 225.826 901.104 225.167C900.847 224.507 900.719 223.809 900.719 223.073V222.677C900.719 221.851 900.833 221.087 901.063 220.385C901.292 219.677 901.632 219.059 902.083 218.531C902.535 218.003 903.101 217.594 903.781 217.302C904.462 217.003 905.253 216.854 906.156 216.854C906.955 216.854 907.67 216.983 908.302 217.24C908.934 217.497 909.469 217.865 909.906 218.344C910.351 218.823 910.688 219.403 910.917 220.083C911.153 220.764 911.271 221.528 911.271 222.375V223.802H902.063V221.604H907.844V221.333C907.851 220.958 907.785 220.639 907.646 220.375C907.514 220.111 907.319 219.91 907.063 219.771C906.806 219.632 906.493 219.562 906.125 219.562C905.743 219.562 905.427 219.646 905.177 219.812C904.934 219.979 904.743 220.208 904.604 220.5C904.472 220.785 904.378 221.115 904.323 221.49C904.267 221.865 904.24 222.26 904.24 222.677V223.073C904.24 223.49 904.295 223.868 904.406 224.208C904.524 224.549 904.691 224.84 904.906 225.083C905.128 225.319 905.392 225.503 905.698 225.635C906.01 225.767 906.365 225.833 906.76 225.833C907.24 225.833 907.712 225.743 908.177 225.562C908.642 225.382 909.042 225.083 909.375 224.667L910.969 226.562C910.74 226.889 910.413 227.205 909.99 227.51C909.573 227.816 909.073 228.066 908.49 228.26C907.906 228.448 907.253 228.542 906.531 228.542ZM918.604 225.167C918.604 224.972 918.538 224.806 918.406 224.667C918.281 224.521 918.059 224.389 917.74 224.271C917.42 224.146 916.972 224.021 916.396 223.896C915.847 223.778 915.33 223.622 914.844 223.427C914.365 223.233 913.944 222.997 913.583 222.719C913.222 222.441 912.938 222.111 912.729 221.729C912.528 221.347 912.427 220.91 912.427 220.417C912.427 219.937 912.528 219.486 912.729 219.062C912.938 218.632 913.24 218.253 913.635 217.927C914.038 217.594 914.528 217.333 915.104 217.146C915.681 216.951 916.337 216.854 917.073 216.854C918.087 216.854 918.962 217.01 919.698 217.323C920.434 217.628 921 218.059 921.396 218.615C921.799 219.163 922 219.799 922 220.521H918.49C918.49 220.236 918.441 219.993 918.344 219.792C918.253 219.59 918.104 219.437 917.896 219.333C917.688 219.222 917.41 219.167 917.063 219.167C916.819 219.167 916.597 219.212 916.396 219.302C916.201 219.392 916.045 219.517 915.927 219.677C915.809 219.837 915.75 220.024 915.75 220.24C915.75 220.392 915.785 220.531 915.854 220.656C915.931 220.774 916.045 220.885 916.198 220.99C916.351 221.087 916.545 221.177 916.781 221.26C917.017 221.337 917.302 221.406 917.635 221.469C918.392 221.608 919.101 221.806 919.76 222.062C920.42 222.319 920.955 222.684 921.365 223.156C921.781 223.628 921.99 224.264 921.99 225.062C921.99 225.562 921.875 226.024 921.646 226.448C921.417 226.865 921.087 227.233 920.656 227.552C920.226 227.865 919.708 228.108 919.104 228.281C918.5 228.455 917.819 228.542 917.063 228.542C915.986 228.542 915.076 228.351 914.333 227.969C913.59 227.58 913.028 227.094 912.646 226.51C912.271 225.92 912.083 225.323 912.083 224.719H915.354C915.368 225.066 915.451 225.351 915.604 225.573C915.764 225.795 915.976 225.958 916.24 226.062C916.503 226.167 916.809 226.219 917.156 226.219C917.476 226.219 917.74 226.174 917.948 226.083C918.163 225.993 918.326 225.872 918.438 225.719C918.549 225.559 918.604 225.375 918.604 225.167ZM929.542 225.167C929.542 224.972 929.476 224.806 929.344 224.667C929.219 224.521 928.997 224.389 928.677 224.271C928.358 224.146 927.91 224.021 927.333 223.896C926.785 223.778 926.267 223.622 925.781 223.427C925.302 223.233 924.882 222.997 924.521 222.719C924.16 222.441 923.875 222.111 923.667 221.729C923.465 221.347 923.365 220.91 923.365 220.417C923.365 219.937 923.465 219.486 923.667 219.062C923.875 218.632 924.177 218.253 924.573 217.927C924.976 217.594 925.465 217.333 926.042 217.146C926.618 216.951 927.274 216.854 928.01 216.854C929.024 216.854 929.899 217.01 930.635 217.323C931.372 217.628 931.938 218.059 932.333 218.615C932.736 219.163 932.938 219.799 932.938 220.521H929.427C929.427 220.236 929.378 219.993 929.281 219.792C929.191 219.59 929.042 219.437 928.833 219.333C928.625 219.222 928.347 219.167 928 219.167C927.757 219.167 927.535 219.212 927.333 219.302C927.139 219.392 926.983 219.517 926.865 219.677C926.747 219.837 926.688 220.024 926.688 220.24C926.688 220.392 926.722 220.531 926.792 220.656C926.868 220.774 926.983 220.885 927.135 220.99C927.288 221.087 927.483 221.177 927.719 221.26C927.955 221.337 928.24 221.406 928.573 221.469C929.33 221.608 930.038 221.806 930.698 222.062C931.358 222.319 931.892 222.684 932.302 223.156C932.719 223.628 932.927 224.264 932.927 225.062C932.927 225.562 932.813 226.024 932.583 226.448C932.354 226.865 932.024 227.233 931.594 227.552C931.163 227.865 930.646 228.108 930.042 228.281C929.438 228.455 928.757 228.542 928 228.542C926.924 228.542 926.014 228.351 925.271 227.969C924.528 227.58 923.965 227.094 923.583 226.51C923.208 225.92 923.021 225.323 923.021 224.719H926.292C926.306 225.066 926.389 225.351 926.542 225.573C926.701 225.795 926.913 225.958 927.177 226.062C927.441 226.167 927.747 226.219 928.094 226.219C928.413 226.219 928.677 226.174 928.885 226.083C929.101 225.993 929.264 225.872 929.375 225.719C929.486 225.559 929.542 225.375 929.542 225.167ZM934.802 226.687C934.802 226.187 934.983 225.771 935.344 225.437C935.705 225.097 936.17 224.927 936.74 224.927C937.316 224.927 937.781 225.097 938.135 225.437C938.497 225.771 938.677 226.187 938.677 226.687C938.677 227.187 938.497 227.608 938.135 227.948C937.781 228.281 937.316 228.448 936.74 228.448C936.17 228.448 935.705 228.281 935.344 227.948C934.983 227.608 934.802 227.187 934.802 226.687ZM941.292 217.062H944.812V228.698C944.812 229.601 944.639 230.361 944.292 230.979C943.944 231.604 943.448 232.076 942.802 232.396C942.156 232.722 941.385 232.885 940.49 232.885C940.191 232.885 939.917 232.872 939.667 232.844C939.41 232.823 939.128 232.778 938.823 232.708V230.052C939.003 230.08 939.17 230.101 939.323 230.115C939.476 230.135 939.642 230.146 939.823 230.146C940.142 230.146 940.41 230.094 940.625 229.99C940.84 229.885 941.003 229.726 941.115 229.51C941.233 229.295 941.292 229.024 941.292 228.698V217.062ZM941.031 214.156C941.031 213.656 941.212 213.247 941.573 212.927C941.934 212.608 942.403 212.448 942.979 212.448C943.556 212.448 944.024 212.608 944.385 212.927C944.747 213.247 944.927 213.656 944.927 214.156C944.927 214.656 944.747 215.066 944.385 215.385C944.024 215.705 943.556 215.865 942.979 215.865C942.403 215.865 941.934 215.705 941.573 215.385C941.212 215.066 941.031 214.656 941.031 214.156ZM952.708 225.167C952.708 224.972 952.642 224.806 952.51 224.667C952.385 224.521 952.163 224.389 951.844 224.271C951.524 224.146 951.076 224.021 950.5 223.896C949.951 223.778 949.434 223.622 948.948 223.427C948.469 223.233 948.049 222.997 947.688 222.719C947.326 222.441 947.042 222.111 946.833 221.729C946.632 221.347 946.531 220.91 946.531 220.417C946.531 219.937 946.632 219.486 946.833 219.062C947.042 218.632 947.344 218.253 947.74 217.927C948.142 217.594 948.632 217.333 949.208 217.146C949.785 216.951 950.441 216.854 951.177 216.854C952.191 216.854 953.066 217.01 953.802 217.323C954.538 217.628 955.104 218.059 955.5 218.615C955.903 219.163 956.104 219.799 956.104 220.521H952.594C952.594 220.236 952.545 219.993 952.448 219.792C952.358 219.59 952.208 219.437 952 219.333C951.792 219.222 951.514 219.167 951.167 219.167C950.924 219.167 950.701 219.212 950.5 219.302C950.306 219.392 950.149 219.517 950.031 219.677C949.913 219.837 949.854 220.024 949.854 220.24C949.854 220.392 949.889 220.531 949.958 220.656C950.035 220.774 950.149 220.885 950.302 220.99C950.455 221.087 950.649 221.177 950.885 221.26C951.122 221.337 951.406 221.406 951.74 221.469C952.497 221.608 953.205 221.806 953.865 222.062C954.524 222.319 955.059 222.684 955.469 223.156C955.885 223.628 956.094 224.264 956.094 225.062C956.094 225.562 955.979 226.024 955.75 226.448C955.521 226.865 955.191 227.233 954.76 227.552C954.33 227.865 953.813 228.108 953.208 228.281C952.604 228.455 951.924 228.542 951.167 228.542C950.09 228.542 949.181 228.351 948.438 227.969C947.694 227.58 947.132 227.094 946.75 226.51C946.375 225.92 946.188 225.323 946.188 224.719H949.458C949.472 225.066 949.556 225.351 949.708 225.573C949.868 225.795 950.08 225.958 950.344 226.062C950.608 226.167 950.913 226.219 951.26 226.219C951.58 226.219 951.844 226.174 952.052 226.083C952.267 225.993 952.431 225.872 952.542 225.719C952.653 225.559 952.708 225.375 952.708 225.167Z" fill="white"/>
<rect x="1035" y="196.333" width="208" height="49.3333" rx="4.66667" fill="black" stroke="#888888" stroke-width="4"/>
<path d="M1102.36 224.302C1102.36 224.066 1102.33 223.854 1102.26 223.667C1102.19 223.472 1102.06 223.292 1101.87 223.125C1101.69 222.958 1101.42 222.792 1101.06 222.625C1100.72 222.451 1100.26 222.271 1099.69 222.083C1099.02 221.861 1098.38 221.611 1097.76 221.333C1097.14 221.049 1096.59 220.719 1096.1 220.344C1095.62 219.962 1095.23 219.517 1094.95 219.01C1094.66 218.497 1094.52 217.899 1094.52 217.219C1094.52 216.566 1094.67 215.979 1094.96 215.458C1095.25 214.931 1095.66 214.483 1096.18 214.115C1096.7 213.74 1097.32 213.455 1098.03 213.26C1098.74 213.059 1099.51 212.958 1100.35 212.958C1101.47 212.958 1102.44 213.153 1103.29 213.542C1104.15 213.924 1104.81 214.469 1105.29 215.177C1105.78 215.878 1106.02 216.708 1106.02 217.667H1102.39C1102.39 217.285 1102.31 216.948 1102.15 216.656C1101.99 216.365 1101.76 216.135 1101.45 215.969C1101.14 215.802 1100.74 215.719 1100.27 215.719C1099.81 215.719 1099.43 215.788 1099.11 215.927C1098.8 216.066 1098.57 216.253 1098.41 216.49C1098.25 216.719 1098.17 216.972 1098.17 217.25C1098.17 217.479 1098.23 217.687 1098.35 217.875C1098.49 218.056 1098.67 218.226 1098.91 218.385C1099.15 218.545 1099.44 218.698 1099.78 218.844C1100.13 218.99 1100.52 219.132 1100.95 219.271C1101.75 219.528 1102.47 219.816 1103.09 220.135C1103.73 220.448 1104.26 220.806 1104.69 221.208C1105.12 221.604 1105.45 222.056 1105.68 222.562C1105.91 223.069 1106.02 223.642 1106.02 224.281C1106.02 224.962 1105.89 225.566 1105.62 226.094C1105.36 226.622 1104.98 227.069 1104.49 227.437C1104 227.799 1103.41 228.073 1102.72 228.26C1102.03 228.448 1101.26 228.542 1100.42 228.542C1099.64 228.542 1098.87 228.444 1098.11 228.25C1097.36 228.049 1096.68 227.743 1096.07 227.333C1095.46 226.917 1094.97 226.385 1094.6 225.74C1094.24 225.087 1094.06 224.312 1094.06 223.417H1097.73C1097.73 223.861 1097.79 224.236 1097.91 224.542C1098.02 224.847 1098.2 225.094 1098.43 225.281C1098.66 225.462 1098.94 225.594 1099.27 225.677C1099.6 225.753 1099.99 225.792 1100.42 225.792C1100.88 225.792 1101.26 225.726 1101.54 225.594C1101.83 225.455 1102.03 225.274 1102.17 225.052C1102.3 224.823 1102.36 224.573 1102.36 224.302ZM1107.3 222.812V222.594C1107.3 221.767 1107.42 221.007 1107.66 220.312C1107.89 219.611 1108.24 219.003 1108.7 218.49C1109.16 217.976 1109.72 217.576 1110.4 217.292C1111.07 217 1111.85 216.854 1112.73 216.854C1113.62 216.854 1114.4 217 1115.07 217.292C1115.75 217.576 1116.32 217.976 1116.78 218.49C1117.24 219.003 1117.59 219.611 1117.82 220.312C1118.06 221.007 1118.18 221.767 1118.18 222.594V222.812C1118.18 223.632 1118.06 224.392 1117.82 225.094C1117.59 225.788 1117.24 226.396 1116.78 226.917C1116.32 227.431 1115.76 227.83 1115.08 228.115C1114.41 228.399 1113.63 228.542 1112.75 228.542C1111.87 228.542 1111.09 228.399 1110.41 228.115C1109.73 227.83 1109.16 227.431 1108.7 226.917C1108.24 226.396 1107.89 225.788 1107.66 225.094C1107.42 224.392 1107.3 223.632 1107.3 222.812ZM1110.81 222.594V222.812C1110.81 223.236 1110.84 223.632 1110.91 224C1110.97 224.368 1111.07 224.691 1111.22 224.969C1111.36 225.24 1111.56 225.451 1111.81 225.604C1112.06 225.757 1112.38 225.833 1112.75 225.833C1113.12 225.833 1113.42 225.757 1113.67 225.604C1113.92 225.451 1114.11 225.24 1114.26 224.969C1114.41 224.691 1114.51 224.368 1114.57 224C1114.64 223.632 1114.67 223.236 1114.67 222.812V222.594C1114.67 222.184 1114.64 221.799 1114.57 221.437C1114.51 221.069 1114.41 220.747 1114.26 220.469C1114.11 220.184 1113.92 219.962 1113.67 219.802C1113.42 219.642 1113.1 219.562 1112.73 219.562C1112.36 219.562 1112.05 219.642 1111.8 219.802C1111.56 219.962 1111.36 220.184 1111.22 220.469C1111.07 220.747 1110.97 221.069 1110.91 221.437C1110.84 221.799 1110.81 222.184 1110.81 222.594ZM1124.5 225.833C1124.83 225.833 1125.1 225.774 1125.33 225.656C1125.57 225.531 1125.75 225.358 1125.86 225.135C1125.99 224.906 1126.05 224.632 1126.04 224.312H1129.34C1129.35 225.16 1129.14 225.903 1128.72 226.542C1128.3 227.174 1127.73 227.667 1127.01 228.021C1126.3 228.368 1125.49 228.542 1124.58 228.542C1123.7 228.542 1122.93 228.399 1122.27 228.115C1121.61 227.823 1121.06 227.42 1120.61 226.906C1120.18 226.385 1119.85 225.778 1119.63 225.083C1119.41 224.389 1119.3 223.635 1119.3 222.823V222.583C1119.3 221.771 1119.41 221.017 1119.63 220.323C1119.85 219.622 1120.18 219.014 1120.61 218.5C1121.06 217.979 1121.61 217.576 1122.26 217.292C1122.92 217 1123.69 216.854 1124.56 216.854C1125.5 216.854 1126.33 217.031 1127.04 217.385C1127.76 217.74 1128.33 218.253 1128.74 218.927C1129.15 219.601 1129.35 220.417 1129.34 221.375H1126.04C1126.05 221.035 1126 220.729 1125.89 220.458C1125.77 220.187 1125.6 219.972 1125.36 219.812C1125.14 219.646 1124.84 219.562 1124.48 219.562C1124.12 219.562 1123.83 219.642 1123.6 219.802C1123.38 219.962 1123.21 220.184 1123.09 220.469C1122.98 220.747 1122.91 221.066 1122.86 221.427C1122.83 221.788 1122.81 222.174 1122.81 222.583V222.823C1122.81 223.24 1122.83 223.632 1122.86 224C1122.91 224.361 1122.99 224.681 1123.1 224.958C1123.22 225.229 1123.39 225.444 1123.61 225.604C1123.84 225.757 1124.13 225.833 1124.5 225.833ZM1134.39 212.323V228.333H1130.88V212.323H1134.39ZM1141.59 217.062L1136.7 222.802L1134.14 225.365L1132.6 223.135L1134.74 220.354L1137.39 217.062H1141.59ZM1137.83 228.333L1134.82 223.198L1137.42 221.354L1141.85 228.333H1137.83ZM1147.76 228.542C1146.84 228.542 1146.02 228.399 1145.3 228.115C1144.58 227.823 1143.97 227.424 1143.47 226.917C1142.98 226.41 1142.6 225.826 1142.33 225.167C1142.08 224.507 1141.95 223.809 1141.95 223.073V222.677C1141.95 221.851 1142.06 221.087 1142.29 220.385C1142.52 219.677 1142.86 219.059 1143.31 218.531C1143.76 218.003 1144.33 217.594 1145.01 217.302C1145.69 217.003 1146.48 216.854 1147.39 216.854C1148.18 216.854 1148.9 216.983 1149.53 217.24C1150.16 217.497 1150.7 217.865 1151.14 218.344C1151.58 218.823 1151.92 219.403 1152.15 220.083C1152.38 220.764 1152.5 221.528 1152.5 222.375V223.802H1143.29V221.604H1149.07V221.333C1149.08 220.958 1149.01 220.639 1148.88 220.375C1148.74 220.111 1148.55 219.91 1148.29 219.771C1148.03 219.632 1147.72 219.562 1147.35 219.562C1146.97 219.562 1146.66 219.646 1146.41 219.812C1146.16 219.979 1145.97 220.208 1145.83 220.5C1145.7 220.785 1145.61 221.115 1145.55 221.49C1145.5 221.865 1145.47 222.26 1145.47 222.677V223.073C1145.47 223.49 1145.52 223.868 1145.64 224.208C1145.75 224.549 1145.92 224.84 1146.14 225.083C1146.36 225.319 1146.62 225.503 1146.93 225.635C1147.24 225.767 1147.59 225.833 1147.99 225.833C1148.47 225.833 1148.94 225.743 1149.41 225.562C1149.87 225.382 1150.27 225.083 1150.6 224.667L1152.2 226.562C1151.97 226.889 1151.64 227.205 1151.22 227.51C1150.8 227.816 1150.3 228.066 1149.72 228.26C1149.14 228.448 1148.48 228.542 1147.76 228.542ZM1159.86 217.062V219.5H1153.07V217.062H1159.86ZM1154.5 214.26H1158.01V224.656C1158.01 224.955 1158.05 225.187 1158.11 225.354C1158.18 225.514 1158.3 225.628 1158.47 225.698C1158.64 225.76 1158.87 225.792 1159.16 225.792C1159.36 225.792 1159.52 225.788 1159.66 225.781C1159.79 225.767 1159.91 225.75 1160.03 225.729V228.24C1159.73 228.337 1159.42 228.41 1159.09 228.458C1158.77 228.514 1158.42 228.542 1158.05 228.542C1157.3 228.542 1156.66 228.424 1156.13 228.187C1155.6 227.951 1155.19 227.58 1154.92 227.073C1154.64 226.566 1154.5 225.906 1154.5 225.094V214.26ZM1161.49 226.687C1161.49 226.187 1161.67 225.771 1162.03 225.437C1162.39 225.097 1162.86 224.927 1163.43 224.927C1164 224.927 1164.47 225.097 1164.82 225.437C1165.18 225.771 1165.36 226.187 1165.36 226.687C1165.36 227.187 1165.18 227.608 1164.82 227.948C1164.47 228.281 1164 228.448 1163.43 228.448C1162.86 228.448 1162.39 228.281 1162.03 227.948C1161.67 227.608 1161.49 227.187 1161.49 226.687ZM1171.43 217.062V228.333H1167.91V217.062H1171.43ZM1167.7 214.156C1167.7 213.656 1167.88 213.247 1168.24 212.927C1168.6 212.608 1169.07 212.448 1169.65 212.448C1170.22 212.448 1170.69 212.608 1171.05 212.927C1171.41 213.247 1171.59 213.656 1171.59 214.156C1171.59 214.656 1171.41 215.066 1171.05 215.385C1170.69 215.705 1170.22 215.865 1169.65 215.865C1169.07 215.865 1168.6 215.705 1168.24 215.385C1167.88 215.066 1167.7 214.656 1167.7 214.156ZM1173.16 222.812V222.594C1173.16 221.767 1173.27 221.007 1173.51 220.312C1173.75 219.611 1174.09 219.003 1174.55 218.49C1175.01 217.976 1175.58 217.576 1176.25 217.292C1176.92 217 1177.7 216.854 1178.58 216.854C1179.47 216.854 1180.25 217 1180.93 217.292C1181.61 217.576 1182.18 217.976 1182.64 218.49C1183.09 219.003 1183.44 219.611 1183.68 220.312C1183.91 221.007 1184.03 221.767 1184.03 222.594V222.812C1184.03 223.632 1183.91 224.392 1183.68 225.094C1183.44 225.788 1183.09 226.396 1182.64 226.917C1182.18 227.431 1181.61 227.83 1180.94 228.115C1180.26 228.399 1179.49 228.542 1178.6 228.542C1177.72 228.542 1176.94 228.399 1176.26 228.115C1175.58 227.83 1175.01 227.431 1174.55 226.917C1174.09 226.396 1173.75 225.788 1173.51 225.094C1173.27 224.392 1173.16 223.632 1173.16 222.812ZM1176.67 222.594V222.812C1176.67 223.236 1176.7 223.632 1176.76 224C1176.82 224.368 1176.93 224.691 1177.07 224.969C1177.22 225.24 1177.42 225.451 1177.67 225.604C1177.92 225.757 1178.23 225.833 1178.6 225.833C1178.97 225.833 1179.28 225.757 1179.52 225.604C1179.77 225.451 1179.97 225.24 1180.11 224.969C1180.26 224.691 1180.36 224.368 1180.43 224C1180.49 223.632 1180.52 223.236 1180.52 222.812V222.594C1180.52 222.184 1180.49 221.799 1180.43 221.437C1180.36 221.069 1180.26 220.747 1180.11 220.469C1179.97 220.184 1179.77 219.962 1179.52 219.802C1179.27 219.642 1178.96 219.562 1178.58 219.562C1178.22 219.562 1177.91 219.642 1177.66 219.802C1177.41 219.962 1177.22 220.184 1177.07 220.469C1176.93 220.747 1176.82 221.069 1176.76 221.437C1176.7 221.799 1176.67 222.184 1176.67 222.594Z" fill="white"/>
</svg>
