<svg width="1363" height="167" viewBox="0 0 1363 167" fill="none" xmlns="http://www.w3.org/2000/svg">
<rect width="1363" height="167" rx="15" fill="white"/>
<path d="M0 15C0 6.71573 6.71573 0 15 0H37V167H15C6.71573 167 0 160.284 0 152V15Z" fill="black"/>
<path d="M100.906 50.9219L93.3945 48.2383V45.0859L103.602 49.375V51.6367L100.906 50.9219ZM93.3945 53.1719L100.918 50.4297L103.602 49.7852V52.0352L93.3945 56.3242V53.1719ZM107.527 40.9375H110.504L114.887 53.4648L119.27 40.9375H122.246L116.082 58H113.691L107.527 40.9375ZM105.922 40.9375H108.887L109.426 53.1484V58H105.922V40.9375ZM120.887 40.9375H123.863V58H120.348V53.1484L120.887 40.9375ZM126.195 51.7891V51.543C126.195 50.6133 126.328 49.7578 126.594 48.9766C126.859 48.1875 127.246 47.5039 127.754 46.9258C128.262 46.3477 128.887 45.8984 129.629 45.5781C130.371 45.25 131.223 45.0859 132.184 45.0859C133.145 45.0859 134 45.25 134.75 45.5781C135.5 45.8984 136.129 46.3477 136.637 46.9258C137.152 47.5039 137.543 48.1875 137.809 48.9766C138.074 49.7578 138.207 50.6133 138.207 51.543V51.7891C138.207 52.7109 138.074 53.5664 137.809 54.3555C137.543 55.1367 137.152 55.8203 136.637 56.4062C136.129 56.9844 135.504 57.4336 134.762 57.7539C134.02 58.0742 133.168 58.2344 132.207 58.2344C131.246 58.2344 130.391 58.0742 129.641 57.7539C128.898 57.4336 128.27 56.9844 127.754 56.4062C127.246 55.8203 126.859 55.1367 126.594 54.3555C126.328 53.5664 126.195 52.7109 126.195 51.7891ZM129.57 51.543V51.7891C129.57 52.3203 129.617 52.8164 129.711 53.2773C129.805 53.7383 129.953 54.1445 130.156 54.4961C130.367 54.8398 130.641 55.1094 130.977 55.3047C131.312 55.5 131.723 55.5977 132.207 55.5977C132.676 55.5977 133.078 55.5 133.414 55.3047C133.75 55.1094 134.02 54.8398 134.223 54.4961C134.426 54.1445 134.574 53.7383 134.668 53.2773C134.77 52.8164 134.82 52.3203 134.82 51.7891V51.543C134.82 51.0273 134.77 50.543 134.668 50.0898C134.574 49.6289 134.422 49.2227 134.211 48.8711C134.008 48.5117 133.738 48.2305 133.402 48.0273C133.066 47.8242 132.66 47.7227 132.184 47.7227C131.707 47.7227 131.301 47.8242 130.965 48.0273C130.637 48.2305 130.367 48.5117 130.156 48.8711C129.953 49.2227 129.805 49.6289 129.711 50.0898C129.617 50.543 129.57 51.0273 129.57 51.543ZM144.406 55.5391L147.219 45.3203H150.746L146.469 58H144.336L144.406 55.5391ZM142.473 45.3203L145.297 55.5508L145.355 58H143.211L138.934 45.3203H142.473ZM155.82 45.3203V58H152.434V45.3203H155.82ZM152.223 42.0156C152.223 41.5234 152.395 41.1172 152.738 40.7969C153.082 40.4766 153.543 40.3164 154.121 40.3164C154.691 40.3164 155.148 40.4766 155.492 40.7969C155.844 41.1172 156.02 41.5234 156.02 42.0156C156.02 42.5078 155.844 42.9141 155.492 43.2344C155.148 43.5547 154.691 43.7148 154.121 43.7148C153.543 43.7148 153.082 43.5547 152.738 43.2344C152.395 42.9141 152.223 42.5078 152.223 42.0156ZM164.445 58.2344C163.461 58.2344 162.578 58.0781 161.797 57.7656C161.016 57.4453 160.352 57.0039 159.805 56.4414C159.266 55.8789 158.852 55.2266 158.562 54.4844C158.273 53.7344 158.129 52.9375 158.129 52.0938V51.625C158.129 50.6641 158.266 49.7852 158.539 48.9883C158.812 48.1914 159.203 47.5 159.711 46.9141C160.227 46.3281 160.852 45.8789 161.586 45.5664C162.32 45.2461 163.148 45.0859 164.07 45.0859C164.969 45.0859 165.766 45.2344 166.461 45.5312C167.156 45.8281 167.738 46.25 168.207 46.7969C168.684 47.3438 169.043 48 169.285 48.7656C169.527 49.5234 169.648 50.3672 169.648 51.2969V52.7031H159.57V50.4531H166.332V50.1953C166.332 49.7266 166.246 49.3086 166.074 48.9414C165.91 48.5664 165.66 48.2695 165.324 48.0508C164.988 47.832 164.559 47.7227 164.035 47.7227C163.59 47.7227 163.207 47.8203 162.887 48.0156C162.566 48.2109 162.305 48.4844 162.102 48.8359C161.906 49.1875 161.758 49.6016 161.656 50.0781C161.562 50.5469 161.516 51.0625 161.516 51.625V52.0938C161.516 52.6016 161.586 53.0703 161.727 53.5C161.875 53.9297 162.082 54.3008 162.348 54.6133C162.621 54.9258 162.949 55.168 163.332 55.3398C163.723 55.5117 164.164 55.5977 164.656 55.5977C165.266 55.5977 165.832 55.4805 166.355 55.2461C166.887 55.0039 167.344 54.6406 167.727 54.1562L169.367 55.9375C169.102 56.3203 168.738 56.6875 168.277 57.0391C167.824 57.3906 167.277 57.6797 166.637 57.9062C165.996 58.125 165.266 58.2344 164.445 58.2344ZM181.273 40.9375V58H177.758V40.9375H181.273ZM188.07 48.2266V50.9688H180.312V48.2266H188.07ZM188.891 40.9375V43.6914H180.312V40.9375H188.891ZM197.164 55.1406V49.4922C197.164 49.0859 197.098 48.7383 196.965 48.4492C196.832 48.1523 196.625 47.9219 196.344 47.7578C196.07 47.5938 195.715 47.5117 195.277 47.5117C194.902 47.5117 194.578 47.5781 194.305 47.7109C194.031 47.8359 193.82 48.0195 193.672 48.2617C193.523 48.4961 193.449 48.7734 193.449 49.0938H190.074C190.074 48.5547 190.199 48.043 190.449 47.5586C190.699 47.0742 191.062 46.6484 191.539 46.2812C192.016 45.9062 192.582 45.6133 193.238 45.4023C193.902 45.1914 194.645 45.0859 195.465 45.0859C196.449 45.0859 197.324 45.25 198.09 45.5781C198.855 45.9062 199.457 46.3984 199.895 47.0547C200.34 47.7109 200.562 48.5312 200.562 49.5156V54.9414C200.562 55.6367 200.605 56.207 200.691 56.6523C200.777 57.0898 200.902 57.4727 201.066 57.8008V58H197.656C197.492 57.6562 197.367 57.2266 197.281 56.7109C197.203 56.1875 197.164 55.6641 197.164 55.1406ZM197.609 50.2773L197.633 52.1875H195.746C195.301 52.1875 194.914 52.2383 194.586 52.3398C194.258 52.4414 193.988 52.5859 193.777 52.7734C193.566 52.9531 193.41 53.1641 193.309 53.4062C193.215 53.6484 193.168 53.9141 193.168 54.2031C193.168 54.4922 193.234 54.7539 193.367 54.9883C193.5 55.2148 193.691 55.3945 193.941 55.5273C194.191 55.6523 194.484 55.7148 194.82 55.7148C195.328 55.7148 195.77 55.6133 196.145 55.4102C196.52 55.207 196.809 54.957 197.012 54.6602C197.223 54.3633 197.332 54.082 197.34 53.8164L198.23 55.2461C198.105 55.5664 197.934 55.8984 197.715 56.2422C197.504 56.5859 197.234 56.9102 196.906 57.2148C196.578 57.5117 196.184 57.7578 195.723 57.9531C195.262 58.1406 194.715 58.2344 194.082 58.2344C193.277 58.2344 192.547 58.0742 191.891 57.7539C191.242 57.4258 190.727 56.9766 190.344 56.4062C189.969 55.8281 189.781 55.1719 189.781 54.4375C189.781 53.7734 189.906 53.1836 190.156 52.668C190.406 52.1523 190.773 51.7188 191.258 51.3672C191.75 51.0078 192.363 50.7383 193.098 50.5586C193.832 50.3711 194.684 50.2773 195.652 50.2773H197.609ZM206.469 48.0273V58H203.094V45.3203H206.258L206.469 48.0273ZM205.977 51.2148H205.062C205.062 50.2773 205.184 49.4336 205.426 48.6836C205.668 47.9258 206.008 47.2812 206.445 46.75C206.883 46.2109 207.402 45.8008 208.004 45.5195C208.613 45.2305 209.293 45.0859 210.043 45.0859C210.637 45.0859 211.18 45.1719 211.672 45.3438C212.164 45.5156 212.586 45.7891 212.938 46.1641C213.297 46.5391 213.57 47.0352 213.758 47.6523C213.953 48.2695 214.051 49.0234 214.051 49.9141V58H210.652V49.9023C210.652 49.3398 210.574 48.9023 210.418 48.5898C210.262 48.2773 210.031 48.0586 209.727 47.9336C209.43 47.8008 209.062 47.7344 208.625 47.7344C208.172 47.7344 207.777 47.8242 207.441 48.0039C207.113 48.1836 206.84 48.4336 206.621 48.7539C206.41 49.0664 206.25 49.4336 206.141 49.8555C206.031 50.2773 205.977 50.7305 205.977 51.2148ZM223.461 55.1406V49.4922C223.461 49.0859 223.395 48.7383 223.262 48.4492C223.129 48.1523 222.922 47.9219 222.641 47.7578C222.367 47.5938 222.012 47.5117 221.574 47.5117C221.199 47.5117 220.875 47.5781 220.602 47.7109C220.328 47.8359 220.117 48.0195 219.969 48.2617C219.82 48.4961 219.746 48.7734 219.746 49.0938H216.371C216.371 48.5547 216.496 48.043 216.746 47.5586C216.996 47.0742 217.359 46.6484 217.836 46.2812C218.312 45.9062 218.879 45.6133 219.535 45.4023C220.199 45.1914 220.941 45.0859 221.762 45.0859C222.746 45.0859 223.621 45.25 224.387 45.5781C225.152 45.9062 225.754 46.3984 226.191 47.0547C226.637 47.7109 226.859 48.5312 226.859 49.5156V54.9414C226.859 55.6367 226.902 56.207 226.988 56.6523C227.074 57.0898 227.199 57.4727 227.363 57.8008V58H223.953C223.789 57.6562 223.664 57.2266 223.578 56.7109C223.5 56.1875 223.461 55.6641 223.461 55.1406ZM223.906 50.2773L223.93 52.1875H222.043C221.598 52.1875 221.211 52.2383 220.883 52.3398C220.555 52.4414 220.285 52.5859 220.074 52.7734C219.863 52.9531 219.707 53.1641 219.605 53.4062C219.512 53.6484 219.465 53.9141 219.465 54.2031C219.465 54.4922 219.531 54.7539 219.664 54.9883C219.797 55.2148 219.988 55.3945 220.238 55.5273C220.488 55.6523 220.781 55.7148 221.117 55.7148C221.625 55.7148 222.066 55.6133 222.441 55.4102C222.816 55.207 223.105 54.957 223.309 54.6602C223.52 54.3633 223.629 54.082 223.637 53.8164L224.527 55.2461C224.402 55.5664 224.23 55.8984 224.012 56.2422C223.801 56.5859 223.531 56.9102 223.203 57.2148C222.875 57.5117 222.48 57.7578 222.02 57.9531C221.559 58.1406 221.012 58.2344 220.379 58.2344C219.574 58.2344 218.844 58.0742 218.188 57.7539C217.539 57.4258 217.023 56.9766 216.641 56.4062C216.266 55.8281 216.078 55.1719 216.078 54.4375C216.078 53.7734 216.203 53.1836 216.453 52.668C216.703 52.1523 217.07 51.7188 217.555 51.3672C218.047 51.0078 218.66 50.7383 219.395 50.5586C220.129 50.3711 220.98 50.2773 221.949 50.2773H223.906ZM235.672 45.3203V47.7109H228.289V45.3203H235.672ZM230.117 42.1914H233.492V54.1797C233.492 54.5469 233.539 54.8281 233.633 55.0234C233.734 55.2188 233.883 55.3555 234.078 55.4336C234.273 55.5039 234.52 55.5391 234.816 55.5391C235.027 55.5391 235.215 55.5312 235.379 55.5156C235.551 55.4922 235.695 55.4688 235.812 55.4453L235.824 57.9297C235.535 58.0234 235.223 58.0977 234.887 58.1523C234.551 58.207 234.18 58.2344 233.773 58.2344C233.031 58.2344 232.383 58.1133 231.828 57.8711C231.281 57.6211 230.859 57.2227 230.562 56.6758C230.266 56.1289 230.117 55.4102 230.117 54.5195V42.1914ZM241.156 45.3203V58H237.77V45.3203H241.156ZM237.559 42.0156C237.559 41.5234 237.73 41.1172 238.074 40.7969C238.418 40.4766 238.879 40.3164 239.457 40.3164C240.027 40.3164 240.484 40.4766 240.828 40.7969C241.18 41.1172 241.355 41.5234 241.355 42.0156C241.355 42.5078 241.18 42.9141 240.828 43.2344C240.484 43.5547 240.027 43.7148 239.457 43.7148C238.879 43.7148 238.418 43.5547 238.074 43.2344C237.73 42.9141 237.559 42.5078 237.559 42.0156ZM249.184 55.5977C249.598 55.5977 249.965 55.5195 250.285 55.3633C250.605 55.1992 250.855 54.9727 251.035 54.6836C251.223 54.3867 251.32 54.0391 251.328 53.6406H254.504C254.496 54.5312 254.258 55.3242 253.789 56.0195C253.32 56.707 252.691 57.25 251.902 57.6484C251.113 58.0391 250.23 58.2344 249.254 58.2344C248.27 58.2344 247.41 58.0703 246.676 57.7422C245.949 57.4141 245.344 56.9609 244.859 56.3828C244.375 55.7969 244.012 55.1172 243.77 54.3438C243.527 53.5625 243.406 52.7266 243.406 51.8359V51.4961C243.406 50.5977 243.527 49.7617 243.77 48.9883C244.012 48.207 244.375 47.5273 244.859 46.9492C245.344 46.3633 245.949 45.9062 246.676 45.5781C247.402 45.25 248.254 45.0859 249.23 45.0859C250.27 45.0859 251.18 45.2852 251.961 45.6836C252.75 46.082 253.367 46.6523 253.812 47.3945C254.266 48.1289 254.496 49 254.504 50.0078H251.328C251.32 49.5859 251.23 49.2031 251.059 48.8594C250.895 48.5156 250.652 48.2422 250.332 48.0391C250.02 47.8281 249.633 47.7227 249.172 47.7227C248.68 47.7227 248.277 47.8281 247.965 48.0391C247.652 48.2422 247.41 48.5234 247.238 48.8828C247.066 49.2344 246.945 49.6367 246.875 50.0898C246.812 50.5352 246.781 51.0039 246.781 51.4961V51.8359C246.781 52.3281 246.812 52.8008 246.875 53.2539C246.938 53.707 247.055 54.1094 247.227 54.4609C247.406 54.8125 247.652 55.0898 247.965 55.293C248.277 55.4961 248.684 55.5977 249.184 55.5977ZM263.316 54.4961C263.316 54.2539 263.246 54.0352 263.105 53.8398C262.965 53.6445 262.703 53.4648 262.32 53.3008C261.945 53.1289 261.402 52.9727 260.691 52.832C260.051 52.6914 259.453 52.5156 258.898 52.3047C258.352 52.0859 257.875 51.8242 257.469 51.5195C257.07 51.2148 256.758 50.8555 256.531 50.4414C256.305 50.0195 256.191 49.5391 256.191 49C256.191 48.4688 256.305 47.9688 256.531 47.5C256.766 47.0312 257.098 46.6172 257.527 46.2578C257.965 45.8906 258.496 45.6055 259.121 45.4023C259.754 45.1914 260.465 45.0859 261.254 45.0859C262.355 45.0859 263.301 45.2617 264.09 45.6133C264.887 45.9648 265.496 46.4492 265.918 47.0664C266.348 47.6758 266.562 48.3711 266.562 49.1523H263.188C263.188 48.8242 263.117 48.5312 262.977 48.2734C262.844 48.0078 262.633 47.8008 262.344 47.6523C262.062 47.4961 261.695 47.418 261.242 47.418C260.867 47.418 260.543 47.4844 260.27 47.6172C259.996 47.7422 259.785 47.9141 259.637 48.1328C259.496 48.3438 259.426 48.5781 259.426 48.8359C259.426 49.0312 259.465 49.207 259.543 49.3633C259.629 49.5117 259.766 49.6484 259.953 49.7734C260.141 49.8984 260.383 50.0156 260.68 50.125C260.984 50.2266 261.359 50.3203 261.805 50.4062C262.719 50.5938 263.535 50.8398 264.254 51.1445C264.973 51.4414 265.543 51.8477 265.965 52.3633C266.387 52.8711 266.598 53.5391 266.598 54.3672C266.598 54.9297 266.473 55.4453 266.223 55.9141C265.973 56.3828 265.613 56.793 265.145 57.1445C264.676 57.4883 264.113 57.7578 263.457 57.9531C262.809 58.1406 262.078 58.2344 261.266 58.2344C260.086 58.2344 259.086 58.0234 258.266 57.6016C257.453 57.1797 256.836 56.6445 256.414 55.9961C256 55.3398 255.793 54.668 255.793 53.9805H258.992C259.008 54.4414 259.125 54.8125 259.344 55.0938C259.57 55.375 259.855 55.5781 260.199 55.7031C260.551 55.8281 260.93 55.8906 261.336 55.8906C261.773 55.8906 262.137 55.832 262.426 55.7148C262.715 55.5898 262.934 55.4258 263.082 55.2227C263.238 55.0117 263.316 54.7695 263.316 54.4961Z" fill="#888888"/>
<path d="M101.822 115.1L108.194 86.0078H111.995L114.061 88.4907L107.271 118H103.074L101.822 115.1ZM100.13 86.0078L105.513 115.319L104.129 118H99.2729L92.4834 86.0078H100.13ZM117.554 115.166L122.894 86.0078H130.518L123.729 118H118.895L117.554 115.166ZM114.742 86.0078L121.268 115.275L119.949 118H115.752L108.809 88.4468L110.962 86.0078H114.742ZM141.021 94.2256V118H133.594V94.2256H141.021ZM133.155 88.0952C133.155 87.0405 133.536 86.1763 134.297 85.5024C135.059 84.8286 136.048 84.4917 137.264 84.4917C138.479 84.4917 139.468 84.8286 140.23 85.5024C140.992 86.1763 141.373 87.0405 141.373 88.0952C141.373 89.1499 140.992 90.0142 140.23 90.688C139.468 91.3618 138.479 91.6987 137.264 91.6987C136.048 91.6987 135.059 91.3618 134.297 90.688C133.536 90.0142 133.155 89.1499 133.155 88.0952ZM153.062 100.114V118H145.657V94.2256H152.579L153.062 100.114ZM160.093 94.0498L159.961 100.927C159.668 100.898 159.273 100.861 158.775 100.817C158.277 100.773 157.859 100.751 157.522 100.751C156.658 100.751 155.911 100.854 155.281 101.059C154.666 101.25 154.153 101.542 153.743 101.938C153.348 102.319 153.055 102.802 152.864 103.388C152.688 103.974 152.608 104.655 152.623 105.432L151.282 104.553C151.282 102.956 151.436 101.506 151.744 100.202C152.066 98.8838 152.52 97.7485 153.106 96.7964C153.692 95.8296 154.402 95.0898 155.237 94.5771C156.072 94.0498 157.01 93.7861 158.05 93.7861C158.416 93.7861 158.775 93.8081 159.126 93.8521C159.493 93.896 159.815 93.9619 160.093 94.0498ZM173.716 118.439C171.783 118.439 170.054 118.139 168.531 117.539C167.007 116.923 165.718 116.081 164.664 115.012C163.624 113.942 162.825 112.712 162.269 111.32C161.727 109.929 161.456 108.457 161.456 106.904V106.069C161.456 104.326 161.697 102.714 162.181 101.235C162.664 99.7407 163.382 98.437 164.334 97.3237C165.286 96.2104 166.48 95.3462 167.916 94.731C169.351 94.1011 171.021 93.7861 172.925 93.7861C174.61 93.7861 176.119 94.0571 177.452 94.5991C178.785 95.1411 179.913 95.9175 180.835 96.9282C181.773 97.939 182.483 99.1621 182.967 100.598C183.465 102.033 183.714 103.645 183.714 105.432V108.442H164.29V103.806H176.485V103.234C176.5 102.443 176.36 101.77 176.067 101.213C175.789 100.656 175.379 100.231 174.837 99.9385C174.295 99.6455 173.636 99.499 172.859 99.499C172.054 99.499 171.387 99.6748 170.86 100.026C170.347 100.378 169.944 100.861 169.651 101.477C169.373 102.077 169.175 102.773 169.058 103.564C168.941 104.355 168.882 105.19 168.882 106.069V106.904C168.882 107.783 169 108.581 169.234 109.299C169.483 110.017 169.834 110.632 170.289 111.145C170.757 111.643 171.314 112.031 171.958 112.309C172.618 112.587 173.365 112.727 174.2 112.727C175.21 112.727 176.207 112.536 177.188 112.155C178.169 111.774 179.012 111.145 179.715 110.266L183.077 114.265C182.593 114.953 181.905 115.62 181.011 116.264C180.132 116.909 179.078 117.436 177.847 117.846C176.617 118.242 175.24 118.439 173.716 118.439ZM195.799 118H188.35V92.292C188.35 90.4463 188.724 88.8936 189.471 87.6338C190.218 86.374 191.272 85.4219 192.635 84.7773C193.997 84.1182 195.608 83.7886 197.469 83.7886C198.113 83.7886 198.721 83.8325 199.292 83.9204C199.864 84.0083 200.42 84.1182 200.962 84.25L200.984 89.6992C200.721 89.626 200.45 89.5747 200.171 89.5454C199.893 89.5161 199.549 89.5015 199.139 89.5015C198.421 89.5015 197.813 89.6113 197.315 89.8311C196.817 90.0361 196.436 90.3511 196.172 90.7759C195.923 91.186 195.799 91.6914 195.799 92.292V118ZM200.413 94.2256V99.3672H184.922V94.2256H200.413ZM210.542 100.114V118H203.138V94.2256H210.059L210.542 100.114ZM217.574 94.0498L217.442 100.927C217.149 100.898 216.753 100.861 216.255 100.817C215.757 100.773 215.34 100.751 215.003 100.751C214.139 100.751 213.392 100.854 212.762 101.059C212.146 101.25 211.634 101.542 211.224 101.938C210.828 102.319 210.535 102.802 210.345 103.388C210.169 103.974 210.088 104.655 210.103 105.432L208.763 104.553C208.763 102.956 208.917 101.506 209.224 100.202C209.546 98.8838 210 97.7485 210.586 96.7964C211.172 95.8296 211.883 95.0898 212.718 94.5771C213.553 94.0498 214.49 93.7861 215.53 93.7861C215.896 93.7861 216.255 93.8081 216.607 93.8521C216.973 93.896 217.295 93.9619 217.574 94.0498ZM231.812 112.023V102.224C231.812 101.55 231.717 100.971 231.526 100.488C231.336 100.004 231.036 99.6309 230.625 99.3672C230.215 99.0889 229.666 98.9497 228.978 98.9497C228.421 98.9497 227.945 99.0449 227.549 99.2354C227.154 99.4258 226.854 99.7114 226.648 100.092C226.443 100.473 226.341 100.957 226.341 101.542H218.936C218.936 100.444 219.178 99.4258 219.661 98.4883C220.159 97.5361 220.862 96.7085 221.771 96.0054C222.693 95.3022 223.792 94.7603 225.066 94.3794C226.355 93.9839 227.791 93.7861 229.373 93.7861C231.263 93.7861 232.947 94.1011 234.427 94.731C235.921 95.3608 237.1 96.3057 237.964 97.5654C238.829 98.8105 239.261 100.378 239.261 102.268V112.001C239.261 113.554 239.349 114.733 239.524 115.539C239.7 116.33 239.949 117.026 240.271 117.626V118H232.845C232.493 117.268 232.229 116.374 232.054 115.319C231.893 114.25 231.812 113.151 231.812 112.023ZM232.713 103.476L232.757 107.431H229.483C228.794 107.431 228.208 107.526 227.725 107.717C227.256 107.907 226.875 108.171 226.583 108.508C226.304 108.83 226.099 109.196 225.967 109.606C225.85 110.017 225.792 110.449 225.792 110.903C225.792 111.342 225.894 111.738 226.099 112.089C226.319 112.426 226.612 112.69 226.978 112.88C227.344 113.071 227.754 113.166 228.208 113.166C229.029 113.166 229.725 113.012 230.296 112.705C230.882 112.382 231.329 111.994 231.636 111.54C231.944 111.086 232.098 110.661 232.098 110.266L233.724 113.298C233.431 113.884 233.094 114.477 232.713 115.078C232.347 115.678 231.885 116.235 231.329 116.748C230.787 117.246 230.12 117.656 229.329 117.978C228.538 118.286 227.579 118.439 226.451 118.439C224.986 118.439 223.638 118.139 222.408 117.539C221.192 116.938 220.218 116.103 219.485 115.034C218.753 113.95 218.387 112.705 218.387 111.298C218.387 110.068 218.606 108.969 219.046 108.002C219.5 107.036 220.181 106.215 221.089 105.542C221.998 104.868 223.155 104.355 224.561 104.003C225.967 103.652 227.623 103.476 229.527 103.476H232.713ZM250.84 99.2573V118H243.436V94.2256H250.379L250.84 99.2573ZM249.939 105.3L248.248 105.344C248.248 103.674 248.445 102.136 248.841 100.729C249.236 99.3232 249.822 98.1001 250.599 97.0601C251.375 96.02 252.327 95.2144 253.455 94.6431C254.598 94.0718 255.916 93.7861 257.41 93.7861C258.45 93.7861 259.395 93.9473 260.245 94.2695C261.094 94.5771 261.827 95.0679 262.442 95.7417C263.057 96.4009 263.526 97.2651 263.848 98.3345C264.185 99.3892 264.354 100.656 264.354 102.136V118H256.949V103.081C256.949 102.07 256.832 101.308 256.597 100.795C256.377 100.283 256.055 99.9385 255.63 99.7627C255.206 99.5869 254.686 99.499 254.07 99.499C253.426 99.499 252.847 99.6455 252.334 99.9385C251.822 100.231 251.382 100.642 251.016 101.169C250.665 101.682 250.394 102.29 250.203 102.993C250.027 103.696 249.939 104.465 249.939 105.3ZM263.519 105.3L261.453 105.344C261.453 103.674 261.636 102.136 262.002 100.729C262.383 99.3232 262.947 98.1001 263.694 97.0601C264.456 96.02 265.401 95.2144 266.529 94.6431C267.657 94.0718 268.968 93.7861 270.462 93.7861C271.546 93.7861 272.542 93.9473 273.45 94.2695C274.358 94.5918 275.142 95.1118 275.801 95.8296C276.46 96.5474 276.973 97.4995 277.339 98.686C277.706 99.8579 277.889 101.308 277.889 103.037V118H270.462V103.037C270.462 102.055 270.345 101.315 270.11 100.817C269.891 100.305 269.568 99.9604 269.144 99.7847C268.719 99.5942 268.213 99.499 267.627 99.499C266.924 99.499 266.316 99.6455 265.804 99.9385C265.291 100.231 264.859 100.642 264.507 101.169C264.17 101.682 263.921 102.29 263.76 102.993C263.599 103.696 263.519 104.465 263.519 105.3ZM293.643 118.439C291.709 118.439 289.981 118.139 288.458 117.539C286.934 116.923 285.645 116.081 284.59 115.012C283.55 113.942 282.752 112.712 282.195 111.32C281.653 109.929 281.382 108.457 281.382 106.904V106.069C281.382 104.326 281.624 102.714 282.107 101.235C282.591 99.7407 283.309 98.437 284.261 97.3237C285.213 96.2104 286.407 95.3462 287.842 94.731C289.278 94.1011 290.948 93.7861 292.852 93.7861C294.537 93.7861 296.045 94.0571 297.378 94.5991C298.711 95.1411 299.839 95.9175 300.762 96.9282C301.7 97.939 302.41 99.1621 302.894 100.598C303.392 102.033 303.641 103.645 303.641 105.432V108.442H284.217V103.806H296.412V103.234C296.426 102.443 296.287 101.77 295.994 101.213C295.716 100.656 295.306 100.231 294.764 99.9385C294.222 99.6455 293.562 99.499 292.786 99.499C291.98 99.499 291.314 99.6748 290.787 100.026C290.274 100.378 289.871 100.861 289.578 101.477C289.3 102.077 289.102 102.773 288.985 103.564C288.868 104.355 288.809 105.19 288.809 106.069V106.904C288.809 107.783 288.926 108.581 289.161 109.299C289.41 110.017 289.761 110.632 290.215 111.145C290.684 111.643 291.241 112.031 291.885 112.309C292.544 112.587 293.292 112.727 294.126 112.727C295.137 112.727 296.133 112.536 297.115 112.155C298.096 111.774 298.938 111.145 299.642 110.266L303.003 114.265C302.52 114.953 301.832 115.62 300.938 116.264C300.059 116.909 299.004 117.436 297.774 117.846C296.543 118.242 295.167 118.439 293.643 118.439ZM319.109 111.32C319.109 110.91 318.97 110.559 318.692 110.266C318.428 109.958 317.959 109.68 317.286 109.431C316.612 109.167 315.667 108.903 314.451 108.64C313.294 108.391 312.203 108.061 311.177 107.651C310.167 107.241 309.28 106.743 308.519 106.157C307.757 105.571 307.156 104.875 306.717 104.069C306.292 103.264 306.08 102.341 306.08 101.301C306.08 100.29 306.292 99.3379 306.717 98.4443C307.156 97.5361 307.793 96.7378 308.628 96.0493C309.478 95.3462 310.511 94.7969 311.727 94.4014C312.942 93.9912 314.327 93.7861 315.879 93.7861C318.018 93.7861 319.864 94.1157 321.417 94.7749C322.969 95.4194 324.163 96.3276 324.998 97.4995C325.848 98.6567 326.272 99.9971 326.272 101.521H318.868C318.868 100.92 318.765 100.407 318.56 99.9824C318.37 99.5576 318.055 99.2354 317.615 99.0156C317.176 98.7812 316.59 98.6641 315.857 98.6641C315.345 98.6641 314.876 98.7593 314.451 98.9497C314.041 99.1401 313.711 99.4038 313.462 99.7407C313.213 100.078 313.089 100.473 313.089 100.927C313.089 101.25 313.162 101.542 313.309 101.806C313.47 102.055 313.711 102.29 314.034 102.509C314.356 102.714 314.766 102.905 315.264 103.081C315.762 103.242 316.363 103.388 317.066 103.52C318.663 103.813 320.157 104.23 321.548 104.772C322.94 105.314 324.068 106.083 324.932 107.08C325.811 108.076 326.25 109.416 326.25 111.101C326.25 112.155 326.009 113.129 325.525 114.023C325.042 114.902 324.346 115.678 323.438 116.352C322.53 117.011 321.438 117.524 320.164 117.89C318.89 118.256 317.454 118.439 315.857 118.439C313.587 118.439 311.668 118.037 310.101 117.231C308.533 116.411 307.347 115.385 306.541 114.155C305.75 112.91 305.354 111.65 305.354 110.375H312.254C312.283 111.108 312.459 111.708 312.781 112.177C313.118 112.646 313.565 112.99 314.122 113.21C314.678 113.43 315.323 113.54 316.055 113.54C316.729 113.54 317.286 113.444 317.725 113.254C318.179 113.063 318.523 112.807 318.758 112.485C318.992 112.148 319.109 111.76 319.109 111.32Z" fill="black"/>
<path d="M1363 15C1363 6.71573 1356.28 0 1348 0H1134V167H1348C1356.28 167 1363 160.284 1363 152V15Z" fill="#FF0000"/>
</svg>
