<svg width="1363" height="167" viewBox="0 0 1363 167" fill="none" xmlns="http://www.w3.org/2000/svg">
<rect width="1363" height="167" rx="15" fill="white"/>
<path d="M0 15C0 6.71573 6.71573 0 15 0H37V167H15C6.71573 167 0 160.284 0 152V15Z" fill="black"/>
<path d="M100.906 50.9219L93.3945 48.2383V45.0859L103.602 49.375V51.6367L100.906 50.9219ZM93.3945 53.1719L100.918 50.4297L103.602 49.7852V52.0352L93.3945 56.3242V53.1719ZM107.527 40.9375H110.504L114.887 53.4648L119.27 40.9375H122.246L116.082 58H113.691L107.527 40.9375ZM105.922 40.9375H108.887L109.426 53.1484V58H105.922V40.9375ZM120.887 40.9375H123.863V58H120.348V53.1484L120.887 40.9375ZM126.195 51.7891V51.543C126.195 50.6133 126.328 49.7578 126.594 48.9766C126.859 48.1875 127.246 47.5039 127.754 46.9258C128.262 46.3477 128.887 45.8984 129.629 45.5781C130.371 45.25 131.223 45.0859 132.184 45.0859C133.145 45.0859 134 45.25 134.75 45.5781C135.5 45.8984 136.129 46.3477 136.637 46.9258C137.152 47.5039 137.543 48.1875 137.809 48.9766C138.074 49.7578 138.207 50.6133 138.207 51.543V51.7891C138.207 52.7109 138.074 53.5664 137.809 54.3555C137.543 55.1367 137.152 55.8203 136.637 56.4062C136.129 56.9844 135.504 57.4336 134.762 57.7539C134.02 58.0742 133.168 58.2344 132.207 58.2344C131.246 58.2344 130.391 58.0742 129.641 57.7539C128.898 57.4336 128.27 56.9844 127.754 56.4062C127.246 55.8203 126.859 55.1367 126.594 54.3555C126.328 53.5664 126.195 52.7109 126.195 51.7891ZM129.57 51.543V51.7891C129.57 52.3203 129.617 52.8164 129.711 53.2773C129.805 53.7383 129.953 54.1445 130.156 54.4961C130.367 54.8398 130.641 55.1094 130.977 55.3047C131.312 55.5 131.723 55.5977 132.207 55.5977C132.676 55.5977 133.078 55.5 133.414 55.3047C133.75 55.1094 134.02 54.8398 134.223 54.4961C134.426 54.1445 134.574 53.7383 134.668 53.2773C134.77 52.8164 134.82 52.3203 134.82 51.7891V51.543C134.82 51.0273 134.77 50.543 134.668 50.0898C134.574 49.6289 134.422 49.2227 134.211 48.8711C134.008 48.5117 133.738 48.2305 133.402 48.0273C133.066 47.8242 132.66 47.7227 132.184 47.7227C131.707 47.7227 131.301 47.8242 130.965 48.0273C130.637 48.2305 130.367 48.5117 130.156 48.8711C129.953 49.2227 129.805 49.6289 129.711 50.0898C129.617 50.543 129.57 51.0273 129.57 51.543ZM144.406 55.5391L147.219 45.3203H150.746L146.469 58H144.336L144.406 55.5391ZM142.473 45.3203L145.297 55.5508L145.355 58H143.211L138.934 45.3203H142.473ZM155.82 45.3203V58H152.434V45.3203H155.82ZM152.223 42.0156C152.223 41.5234 152.395 41.1172 152.738 40.7969C153.082 40.4766 153.543 40.3164 154.121 40.3164C154.691 40.3164 155.148 40.4766 155.492 40.7969C155.844 41.1172 156.02 41.5234 156.02 42.0156C156.02 42.5078 155.844 42.9141 155.492 43.2344C155.148 43.5547 154.691 43.7148 154.121 43.7148C153.543 43.7148 153.082 43.5547 152.738 43.2344C152.395 42.9141 152.223 42.5078 152.223 42.0156ZM164.445 58.2344C163.461 58.2344 162.578 58.0781 161.797 57.7656C161.016 57.4453 160.352 57.0039 159.805 56.4414C159.266 55.8789 158.852 55.2266 158.562 54.4844C158.273 53.7344 158.129 52.9375 158.129 52.0938V51.625C158.129 50.6641 158.266 49.7852 158.539 48.9883C158.812 48.1914 159.203 47.5 159.711 46.9141C160.227 46.3281 160.852 45.8789 161.586 45.5664C162.32 45.2461 163.148 45.0859 164.07 45.0859C164.969 45.0859 165.766 45.2344 166.461 45.5312C167.156 45.8281 167.738 46.25 168.207 46.7969C168.684 47.3438 169.043 48 169.285 48.7656C169.527 49.5234 169.648 50.3672 169.648 51.2969V52.7031H159.57V50.4531H166.332V50.1953C166.332 49.7266 166.246 49.3086 166.074 48.9414C165.91 48.5664 165.66 48.2695 165.324 48.0508C164.988 47.832 164.559 47.7227 164.035 47.7227C163.59 47.7227 163.207 47.8203 162.887 48.0156C162.566 48.2109 162.305 48.4844 162.102 48.8359C161.906 49.1875 161.758 49.6016 161.656 50.0781C161.562 50.5469 161.516 51.0625 161.516 51.625V52.0938C161.516 52.6016 161.586 53.0703 161.727 53.5C161.875 53.9297 162.082 54.3008 162.348 54.6133C162.621 54.9258 162.949 55.168 163.332 55.3398C163.723 55.5117 164.164 55.5977 164.656 55.5977C165.266 55.5977 165.832 55.4805 166.355 55.2461C166.887 55.0039 167.344 54.6406 167.727 54.1562L169.367 55.9375C169.102 56.3203 168.738 56.6875 168.277 57.0391C167.824 57.3906 167.277 57.6797 166.637 57.9062C165.996 58.125 165.266 58.2344 164.445 58.2344ZM181.273 40.9375V58H177.758V40.9375H181.273ZM188.07 48.2266V50.9688H180.312V48.2266H188.07ZM188.891 40.9375V43.6914H180.312V40.9375H188.891ZM197.164 55.1406V49.4922C197.164 49.0859 197.098 48.7383 196.965 48.4492C196.832 48.1523 196.625 47.9219 196.344 47.7578C196.07 47.5938 195.715 47.5117 195.277 47.5117C194.902 47.5117 194.578 47.5781 194.305 47.7109C194.031 47.8359 193.82 48.0195 193.672 48.2617C193.523 48.4961 193.449 48.7734 193.449 49.0938H190.074C190.074 48.5547 190.199 48.043 190.449 47.5586C190.699 47.0742 191.062 46.6484 191.539 46.2812C192.016 45.9062 192.582 45.6133 193.238 45.4023C193.902 45.1914 194.645 45.0859 195.465 45.0859C196.449 45.0859 197.324 45.25 198.09 45.5781C198.855 45.9062 199.457 46.3984 199.895 47.0547C200.34 47.7109 200.562 48.5312 200.562 49.5156V54.9414C200.562 55.6367 200.605 56.207 200.691 56.6523C200.777 57.0898 200.902 57.4727 201.066 57.8008V58H197.656C197.492 57.6562 197.367 57.2266 197.281 56.7109C197.203 56.1875 197.164 55.6641 197.164 55.1406ZM197.609 50.2773L197.633 52.1875H195.746C195.301 52.1875 194.914 52.2383 194.586 52.3398C194.258 52.4414 193.988 52.5859 193.777 52.7734C193.566 52.9531 193.41 53.1641 193.309 53.4062C193.215 53.6484 193.168 53.9141 193.168 54.2031C193.168 54.4922 193.234 54.7539 193.367 54.9883C193.5 55.2148 193.691 55.3945 193.941 55.5273C194.191 55.6523 194.484 55.7148 194.82 55.7148C195.328 55.7148 195.77 55.6133 196.145 55.4102C196.52 55.207 196.809 54.957 197.012 54.6602C197.223 54.3633 197.332 54.082 197.34 53.8164L198.23 55.2461C198.105 55.5664 197.934 55.8984 197.715 56.2422C197.504 56.5859 197.234 56.9102 196.906 57.2148C196.578 57.5117 196.184 57.7578 195.723 57.9531C195.262 58.1406 194.715 58.2344 194.082 58.2344C193.277 58.2344 192.547 58.0742 191.891 57.7539C191.242 57.4258 190.727 56.9766 190.344 56.4062C189.969 55.8281 189.781 55.1719 189.781 54.4375C189.781 53.7734 189.906 53.1836 190.156 52.668C190.406 52.1523 190.773 51.7188 191.258 51.3672C191.75 51.0078 192.363 50.7383 193.098 50.5586C193.832 50.3711 194.684 50.2773 195.652 50.2773H197.609ZM206.469 48.0273V58H203.094V45.3203H206.258L206.469 48.0273ZM205.977 51.2148H205.062C205.062 50.2773 205.184 49.4336 205.426 48.6836C205.668 47.9258 206.008 47.2812 206.445 46.75C206.883 46.2109 207.402 45.8008 208.004 45.5195C208.613 45.2305 209.293 45.0859 210.043 45.0859C210.637 45.0859 211.18 45.1719 211.672 45.3438C212.164 45.5156 212.586 45.7891 212.938 46.1641C213.297 46.5391 213.57 47.0352 213.758 47.6523C213.953 48.2695 214.051 49.0234 214.051 49.9141V58H210.652V49.9023C210.652 49.3398 210.574 48.9023 210.418 48.5898C210.262 48.2773 210.031 48.0586 209.727 47.9336C209.43 47.8008 209.062 47.7344 208.625 47.7344C208.172 47.7344 207.777 47.8242 207.441 48.0039C207.113 48.1836 206.84 48.4336 206.621 48.7539C206.41 49.0664 206.25 49.4336 206.141 49.8555C206.031 50.2773 205.977 50.7305 205.977 51.2148ZM223.461 55.1406V49.4922C223.461 49.0859 223.395 48.7383 223.262 48.4492C223.129 48.1523 222.922 47.9219 222.641 47.7578C222.367 47.5938 222.012 47.5117 221.574 47.5117C221.199 47.5117 220.875 47.5781 220.602 47.7109C220.328 47.8359 220.117 48.0195 219.969 48.2617C219.82 48.4961 219.746 48.7734 219.746 49.0938H216.371C216.371 48.5547 216.496 48.043 216.746 47.5586C216.996 47.0742 217.359 46.6484 217.836 46.2812C218.312 45.9062 218.879 45.6133 219.535 45.4023C220.199 45.1914 220.941 45.0859 221.762 45.0859C222.746 45.0859 223.621 45.25 224.387 45.5781C225.152 45.9062 225.754 46.3984 226.191 47.0547C226.637 47.7109 226.859 48.5312 226.859 49.5156V54.9414C226.859 55.6367 226.902 56.207 226.988 56.6523C227.074 57.0898 227.199 57.4727 227.363 57.8008V58H223.953C223.789 57.6562 223.664 57.2266 223.578 56.7109C223.5 56.1875 223.461 55.6641 223.461 55.1406ZM223.906 50.2773L223.93 52.1875H222.043C221.598 52.1875 221.211 52.2383 220.883 52.3398C220.555 52.4414 220.285 52.5859 220.074 52.7734C219.863 52.9531 219.707 53.1641 219.605 53.4062C219.512 53.6484 219.465 53.9141 219.465 54.2031C219.465 54.4922 219.531 54.7539 219.664 54.9883C219.797 55.2148 219.988 55.3945 220.238 55.5273C220.488 55.6523 220.781 55.7148 221.117 55.7148C221.625 55.7148 222.066 55.6133 222.441 55.4102C222.816 55.207 223.105 54.957 223.309 54.6602C223.52 54.3633 223.629 54.082 223.637 53.8164L224.527 55.2461C224.402 55.5664 224.23 55.8984 224.012 56.2422C223.801 56.5859 223.531 56.9102 223.203 57.2148C222.875 57.5117 222.48 57.7578 222.02 57.9531C221.559 58.1406 221.012 58.2344 220.379 58.2344C219.574 58.2344 218.844 58.0742 218.188 57.7539C217.539 57.4258 217.023 56.9766 216.641 56.4062C216.266 55.8281 216.078 55.1719 216.078 54.4375C216.078 53.7734 216.203 53.1836 216.453 52.668C216.703 52.1523 217.07 51.7188 217.555 51.3672C218.047 51.0078 218.66 50.7383 219.395 50.5586C220.129 50.3711 220.98 50.2773 221.949 50.2773H223.906ZM235.672 45.3203V47.7109H228.289V45.3203H235.672ZM230.117 42.1914H233.492V54.1797C233.492 54.5469 233.539 54.8281 233.633 55.0234C233.734 55.2188 233.883 55.3555 234.078 55.4336C234.273 55.5039 234.52 55.5391 234.816 55.5391C235.027 55.5391 235.215 55.5312 235.379 55.5156C235.551 55.4922 235.695 55.4688 235.812 55.4453L235.824 57.9297C235.535 58.0234 235.223 58.0977 234.887 58.1523C234.551 58.207 234.18 58.2344 233.773 58.2344C233.031 58.2344 232.383 58.1133 231.828 57.8711C231.281 57.6211 230.859 57.2227 230.562 56.6758C230.266 56.1289 230.117 55.4102 230.117 54.5195V42.1914ZM241.156 45.3203V58H237.77V45.3203H241.156ZM237.559 42.0156C237.559 41.5234 237.73 41.1172 238.074 40.7969C238.418 40.4766 238.879 40.3164 239.457 40.3164C240.027 40.3164 240.484 40.4766 240.828 40.7969C241.18 41.1172 241.355 41.5234 241.355 42.0156C241.355 42.5078 241.18 42.9141 240.828 43.2344C240.484 43.5547 240.027 43.7148 239.457 43.7148C238.879 43.7148 238.418 43.5547 238.074 43.2344C237.73 42.9141 237.559 42.5078 237.559 42.0156ZM249.184 55.5977C249.598 55.5977 249.965 55.5195 250.285 55.3633C250.605 55.1992 250.855 54.9727 251.035 54.6836C251.223 54.3867 251.32 54.0391 251.328 53.6406H254.504C254.496 54.5312 254.258 55.3242 253.789 56.0195C253.32 56.707 252.691 57.25 251.902 57.6484C251.113 58.0391 250.23 58.2344 249.254 58.2344C248.27 58.2344 247.41 58.0703 246.676 57.7422C245.949 57.4141 245.344 56.9609 244.859 56.3828C244.375 55.7969 244.012 55.1172 243.77 54.3438C243.527 53.5625 243.406 52.7266 243.406 51.8359V51.4961C243.406 50.5977 243.527 49.7617 243.77 48.9883C244.012 48.207 244.375 47.5273 244.859 46.9492C245.344 46.3633 245.949 45.9062 246.676 45.5781C247.402 45.25 248.254 45.0859 249.23 45.0859C250.27 45.0859 251.18 45.2852 251.961 45.6836C252.75 46.082 253.367 46.6523 253.812 47.3945C254.266 48.1289 254.496 49 254.504 50.0078H251.328C251.32 49.5859 251.23 49.2031 251.059 48.8594C250.895 48.5156 250.652 48.2422 250.332 48.0391C250.02 47.8281 249.633 47.7227 249.172 47.7227C248.68 47.7227 248.277 47.8281 247.965 48.0391C247.652 48.2422 247.41 48.5234 247.238 48.8828C247.066 49.2344 246.945 49.6367 246.875 50.0898C246.812 50.5352 246.781 51.0039 246.781 51.4961V51.8359C246.781 52.3281 246.812 52.8008 246.875 53.2539C246.938 53.707 247.055 54.1094 247.227 54.4609C247.406 54.8125 247.652 55.0898 247.965 55.293C248.277 55.4961 248.684 55.5977 249.184 55.5977ZM263.316 54.4961C263.316 54.2539 263.246 54.0352 263.105 53.8398C262.965 53.6445 262.703 53.4648 262.32 53.3008C261.945 53.1289 261.402 52.9727 260.691 52.832C260.051 52.6914 259.453 52.5156 258.898 52.3047C258.352 52.0859 257.875 51.8242 257.469 51.5195C257.07 51.2148 256.758 50.8555 256.531 50.4414C256.305 50.0195 256.191 49.5391 256.191 49C256.191 48.4688 256.305 47.9688 256.531 47.5C256.766 47.0312 257.098 46.6172 257.527 46.2578C257.965 45.8906 258.496 45.6055 259.121 45.4023C259.754 45.1914 260.465 45.0859 261.254 45.0859C262.355 45.0859 263.301 45.2617 264.09 45.6133C264.887 45.9648 265.496 46.4492 265.918 47.0664C266.348 47.6758 266.562 48.3711 266.562 49.1523H263.188C263.188 48.8242 263.117 48.5312 262.977 48.2734C262.844 48.0078 262.633 47.8008 262.344 47.6523C262.062 47.4961 261.695 47.418 261.242 47.418C260.867 47.418 260.543 47.4844 260.27 47.6172C259.996 47.7422 259.785 47.9141 259.637 48.1328C259.496 48.3438 259.426 48.5781 259.426 48.8359C259.426 49.0312 259.465 49.207 259.543 49.3633C259.629 49.5117 259.766 49.6484 259.953 49.7734C260.141 49.8984 260.383 50.0156 260.68 50.125C260.984 50.2266 261.359 50.3203 261.805 50.4062C262.719 50.5938 263.535 50.8398 264.254 51.1445C264.973 51.4414 265.543 51.8477 265.965 52.3633C266.387 52.8711 266.598 53.5391 266.598 54.3672C266.598 54.9297 266.473 55.4453 266.223 55.9141C265.973 56.3828 265.613 56.793 265.145 57.1445C264.676 57.4883 264.113 57.7578 263.457 57.9531C262.809 58.1406 262.078 58.2344 261.266 58.2344C260.086 58.2344 259.086 58.0234 258.266 57.6016C257.453 57.1797 256.836 56.6445 256.414 55.9961C256 55.3398 255.793 54.668 255.793 53.9805H258.992C259.008 54.4414 259.125 54.8125 259.344 55.0938C259.57 55.375 259.855 55.5781 260.199 55.7031C260.551 55.8281 260.93 55.8906 261.336 55.8906C261.773 55.8906 262.137 55.832 262.426 55.7148C262.715 55.5898 262.934 55.4258 263.082 55.2227C263.238 55.0117 263.316 54.7695 263.316 54.4961Z" fill="#888888"/>
<path d="M107.205 107.146H99.251V101.191H107.205C108.289 101.191 109.168 101.008 109.842 100.642C110.516 100.275 111.006 99.77 111.314 99.1255C111.636 98.4663 111.797 97.7266 111.797 96.9062C111.797 96.0273 111.636 95.2144 111.314 94.4673C111.006 93.7202 110.516 93.1196 109.842 92.6655C109.168 92.1968 108.289 91.9624 107.205 91.9624H102.151V118H94.439V86.0078H107.205C109.769 86.0078 111.973 86.4766 113.819 87.4141C115.679 88.3516 117.107 89.6406 118.104 91.2812C119.1 92.9072 119.598 94.7676 119.598 96.8623C119.598 98.9277 119.1 100.729 118.104 102.268C117.107 103.806 115.679 105.007 113.819 105.871C111.973 106.721 109.769 107.146 107.205 107.146ZM130.87 100.114V118H123.465V94.2256H130.386L130.87 100.114ZM137.901 94.0498L137.769 100.927C137.476 100.898 137.081 100.861 136.583 100.817C136.084 100.773 135.667 100.751 135.33 100.751C134.466 100.751 133.719 100.854 133.089 101.059C132.474 101.25 131.961 101.542 131.551 101.938C131.155 102.319 130.862 102.802 130.672 103.388C130.496 103.974 130.416 104.655 130.43 105.432L129.09 104.553C129.09 102.956 129.244 101.506 129.551 100.202C129.874 98.8838 130.328 97.7485 130.914 96.7964C131.5 95.8296 132.21 95.0898 133.045 94.5771C133.88 94.0498 134.817 93.7861 135.857 93.7861C136.224 93.7861 136.583 93.8081 136.934 93.8521C137.3 93.896 137.623 93.9619 137.901 94.0498ZM138.736 106.354V105.893C138.736 104.15 138.985 102.546 139.483 101.081C139.981 99.6016 140.713 98.3198 141.68 97.2358C142.647 96.1519 143.841 95.3096 145.262 94.709C146.683 94.0938 148.323 93.7861 150.184 93.7861C152.059 93.7861 153.707 94.0938 155.127 94.709C156.563 95.3096 157.764 96.1519 158.731 97.2358C159.698 98.3198 160.43 99.6016 160.928 101.081C161.426 102.546 161.675 104.15 161.675 105.893V106.354C161.675 108.083 161.426 109.687 160.928 111.167C160.43 112.631 159.698 113.913 158.731 115.012C157.764 116.096 156.57 116.938 155.149 117.539C153.729 118.139 152.088 118.439 150.228 118.439C148.367 118.439 146.719 118.139 145.284 117.539C143.848 116.938 142.647 116.096 141.68 115.012C140.713 113.913 139.981 112.631 139.483 111.167C138.985 109.687 138.736 108.083 138.736 106.354ZM146.141 105.893V106.354C146.141 107.248 146.207 108.083 146.338 108.859C146.47 109.636 146.69 110.317 146.998 110.903C147.305 111.474 147.723 111.921 148.25 112.243C148.777 112.565 149.437 112.727 150.228 112.727C151.004 112.727 151.648 112.565 152.161 112.243C152.688 111.921 153.106 111.474 153.414 110.903C153.721 110.317 153.941 109.636 154.073 108.859C154.205 108.083 154.271 107.248 154.271 106.354V105.893C154.271 105.029 154.205 104.216 154.073 103.454C153.941 102.678 153.721 101.997 153.414 101.411C153.106 100.81 152.688 100.341 152.161 100.004C151.634 99.6675 150.975 99.499 150.184 99.499C149.407 99.499 148.755 99.6675 148.228 100.004C147.715 100.341 147.305 100.81 146.998 101.411C146.69 101.997 146.47 102.678 146.338 103.454C146.207 104.216 146.141 105.029 146.141 105.893ZM165.521 94.2256H172.947V118.769C172.947 120.673 172.581 122.277 171.849 123.581C171.116 124.899 170.069 125.896 168.707 126.569C167.344 127.258 165.718 127.602 163.829 127.602C163.199 127.602 162.62 127.573 162.093 127.514C161.551 127.47 160.958 127.375 160.313 127.229V121.625C160.694 121.684 161.045 121.728 161.368 121.757C161.69 121.801 162.042 121.823 162.422 121.823C163.096 121.823 163.66 121.713 164.114 121.494C164.568 121.274 164.913 120.937 165.147 120.483C165.396 120.029 165.521 119.458 165.521 118.769V94.2256ZM164.971 88.0952C164.971 87.0405 165.352 86.1763 166.114 85.5024C166.875 84.8286 167.864 84.4917 169.08 84.4917C170.296 84.4917 171.285 84.8286 172.046 85.5024C172.808 86.1763 173.189 87.0405 173.189 88.0952C173.189 89.1499 172.808 90.0142 172.046 90.688C171.285 91.3618 170.296 91.6987 169.08 91.6987C167.864 91.6987 166.875 91.3618 166.114 90.688C165.352 90.0142 164.971 89.1499 164.971 88.0952ZM188.658 118.439C186.724 118.439 184.996 118.139 183.472 117.539C181.949 116.923 180.66 116.081 179.605 115.012C178.565 113.942 177.767 112.712 177.21 111.32C176.668 109.929 176.397 108.457 176.397 106.904V106.069C176.397 104.326 176.639 102.714 177.122 101.235C177.605 99.7407 178.323 98.437 179.275 97.3237C180.228 96.2104 181.421 95.3462 182.857 94.731C184.292 94.1011 185.962 93.7861 187.867 93.7861C189.551 93.7861 191.06 94.0571 192.393 94.5991C193.726 95.1411 194.854 95.9175 195.777 96.9282C196.714 97.939 197.425 99.1621 197.908 100.598C198.406 102.033 198.655 103.645 198.655 105.432V108.442H179.231V103.806H191.426V103.234C191.441 102.443 191.302 101.77 191.009 101.213C190.73 100.656 190.32 100.231 189.778 99.9385C189.236 99.6455 188.577 99.499 187.801 99.499C186.995 99.499 186.329 99.6748 185.801 100.026C185.289 100.378 184.886 100.861 184.593 101.477C184.314 102.077 184.117 102.773 184 103.564C183.882 104.355 183.824 105.19 183.824 106.069V106.904C183.824 107.783 183.941 108.581 184.175 109.299C184.424 110.017 184.776 110.632 185.23 111.145C185.699 111.643 186.255 112.031 186.9 112.309C187.559 112.587 188.306 112.727 189.141 112.727C190.152 112.727 191.148 112.536 192.129 112.155C193.111 111.774 193.953 111.145 194.656 110.266L198.018 114.265C197.535 114.953 196.846 115.62 195.953 116.264C195.074 116.909 194.019 117.436 192.789 117.846C191.558 118.242 190.181 118.439 188.658 118.439ZM211.707 112.727C212.396 112.727 212.981 112.602 213.465 112.353C213.963 112.089 214.336 111.723 214.585 111.254C214.849 110.771 214.974 110.192 214.959 109.519H221.924C221.939 111.306 221.5 112.873 220.606 114.221C219.727 115.554 218.526 116.594 217.002 117.341C215.494 118.073 213.787 118.439 211.883 118.439C210.022 118.439 208.396 118.139 207.005 117.539C205.613 116.923 204.449 116.074 203.511 114.99C202.588 113.891 201.893 112.609 201.424 111.145C200.97 109.68 200.743 108.09 200.743 106.376V105.871C200.743 104.157 200.97 102.568 201.424 101.103C201.893 99.6235 202.588 98.3418 203.511 97.2578C204.449 96.1592 205.606 95.3096 206.983 94.709C208.375 94.0938 209.993 93.7861 211.839 93.7861C213.816 93.7861 215.56 94.1597 217.068 94.9067C218.592 95.6538 219.786 96.7378 220.65 98.1587C221.514 99.5796 221.939 101.301 221.924 103.322H214.959C214.974 102.604 214.864 101.96 214.629 101.389C214.395 100.817 214.029 100.363 213.531 100.026C213.047 99.6748 212.425 99.499 211.663 99.499C210.901 99.499 210.286 99.6675 209.817 100.004C209.349 100.341 208.99 100.81 208.741 101.411C208.506 101.997 208.345 102.67 208.257 103.432C208.184 104.194 208.147 105.007 208.147 105.871V106.376C208.147 107.255 208.184 108.083 208.257 108.859C208.345 109.621 208.514 110.295 208.763 110.881C209.012 111.452 209.371 111.906 209.839 112.243C210.308 112.565 210.931 112.727 211.707 112.727ZM237.613 94.2256V99.3672H223.287V94.2256H237.613ZM226.297 88.3149H233.702V110.244C233.702 110.874 233.775 111.364 233.921 111.716C234.068 112.053 234.317 112.294 234.668 112.441C235.035 112.573 235.518 112.639 236.119 112.639C236.543 112.639 236.895 112.631 237.173 112.617C237.452 112.587 237.715 112.551 237.964 112.507V117.802C237.334 118.007 236.675 118.161 235.987 118.264C235.298 118.381 234.566 118.439 233.79 118.439C232.208 118.439 230.853 118.19 229.725 117.692C228.611 117.194 227.762 116.411 227.176 115.341C226.59 114.272 226.297 112.88 226.297 111.167V88.3149ZM264.881 107.146H256.927V101.191H264.881C265.965 101.191 266.844 101.008 267.518 100.642C268.191 100.275 268.682 99.77 268.99 99.1255C269.312 98.4663 269.473 97.7266 269.473 96.9062C269.473 96.0273 269.312 95.2144 268.99 94.4673C268.682 93.7202 268.191 93.1196 267.518 92.6655C266.844 92.1968 265.965 91.9624 264.881 91.9624H259.827V118H252.115V86.0078H264.881C267.444 86.0078 269.649 86.4766 271.495 87.4141C273.355 88.3516 274.783 89.6406 275.779 91.2812C276.775 92.9072 277.273 94.7676 277.273 96.8623C277.273 98.9277 276.775 100.729 275.779 102.268C274.783 103.806 273.355 105.007 271.495 105.871C269.649 106.721 267.444 107.146 264.881 107.146ZM288.326 84.25V118H280.921V84.25H288.326ZM287.447 105.3L285.711 105.344C285.711 103.674 285.916 102.136 286.326 100.729C286.736 99.3232 287.322 98.1001 288.084 97.0601C288.846 96.02 289.761 95.2144 290.831 94.6431C291.9 94.0718 293.086 93.7861 294.39 93.7861C295.562 93.7861 296.631 93.9546 297.598 94.2915C298.58 94.6284 299.422 95.1704 300.125 95.9175C300.843 96.6646 301.392 97.6387 301.773 98.8398C302.168 100.041 302.366 101.506 302.366 103.234V118H294.917V103.19C294.917 102.224 294.778 101.477 294.5 100.949C294.236 100.407 293.855 100.034 293.357 99.8286C292.859 99.6089 292.251 99.499 291.534 99.499C290.669 99.499 289.966 99.6455 289.424 99.9385C288.882 100.231 288.465 100.642 288.172 101.169C287.894 101.682 287.703 102.29 287.601 102.993C287.498 103.696 287.447 104.465 287.447 105.3ZM314.297 94.2256V118H306.871V94.2256H314.297ZM306.431 88.0952C306.431 87.0405 306.812 86.1763 307.574 85.5024C308.335 84.8286 309.324 84.4917 310.54 84.4917C311.756 84.4917 312.745 84.8286 313.506 85.5024C314.268 86.1763 314.649 87.0405 314.649 88.0952C314.649 89.1499 314.268 90.0142 313.506 90.688C312.745 91.3618 311.756 91.6987 310.54 91.6987C309.324 91.6987 308.335 91.3618 307.574 90.688C306.812 90.0142 306.431 89.1499 306.431 88.0952ZM326.69 84.25V118H319.263V84.25H326.69ZM330.337 106.354V105.893C330.337 104.15 330.586 102.546 331.084 101.081C331.583 99.6016 332.315 98.3198 333.282 97.2358C334.249 96.1519 335.442 95.3096 336.863 94.709C338.284 94.0938 339.925 93.7861 341.785 93.7861C343.66 93.7861 345.308 94.0938 346.729 94.709C348.165 95.3096 349.366 96.1519 350.333 97.2358C351.299 98.3198 352.032 99.6016 352.53 101.081C353.028 102.546 353.277 104.15 353.277 105.893V106.354C353.277 108.083 353.028 109.687 352.53 111.167C352.032 112.631 351.299 113.913 350.333 115.012C349.366 116.096 348.172 116.938 346.751 117.539C345.33 118.139 343.689 118.439 341.829 118.439C339.969 118.439 338.321 118.139 336.885 117.539C335.45 116.938 334.249 116.096 333.282 115.012C332.315 113.913 331.583 112.631 331.084 111.167C330.586 109.687 330.337 108.083 330.337 106.354ZM337.742 105.893V106.354C337.742 107.248 337.808 108.083 337.94 108.859C338.072 109.636 338.292 110.317 338.599 110.903C338.907 111.474 339.324 111.921 339.852 112.243C340.379 112.565 341.038 112.727 341.829 112.727C342.605 112.727 343.25 112.565 343.763 112.243C344.29 111.921 344.708 111.474 345.015 110.903C345.323 110.317 345.542 109.636 345.674 108.859C345.806 108.083 345.872 107.248 345.872 106.354V105.893C345.872 105.029 345.806 104.216 345.674 103.454C345.542 102.678 345.323 101.997 345.015 101.411C344.708 100.81 344.29 100.341 343.763 100.004C343.235 99.6675 342.576 99.499 341.785 99.499C341.009 99.499 340.357 99.6675 339.83 100.004C339.317 100.341 338.907 100.81 338.599 101.411C338.292 101.997 338.072 102.678 337.94 103.454C337.808 104.216 337.742 105.029 337.742 105.893ZM369.031 111.32C369.031 110.91 368.892 110.559 368.614 110.266C368.35 109.958 367.881 109.68 367.208 109.431C366.534 109.167 365.589 108.903 364.373 108.64C363.216 108.391 362.125 108.061 361.099 107.651C360.088 107.241 359.202 106.743 358.44 106.157C357.679 105.571 357.078 104.875 356.639 104.069C356.214 103.264 356.001 102.341 356.001 101.301C356.001 100.29 356.214 99.3379 356.639 98.4443C357.078 97.5361 357.715 96.7378 358.55 96.0493C359.4 95.3462 360.433 94.7969 361.648 94.4014C362.864 93.9912 364.249 93.7861 365.801 93.7861C367.94 93.7861 369.786 94.1157 371.338 94.7749C372.891 95.4194 374.085 96.3276 374.92 97.4995C375.77 98.6567 376.194 99.9971 376.194 101.521H368.79C368.79 100.92 368.687 100.407 368.482 99.9824C368.292 99.5576 367.977 99.2354 367.537 99.0156C367.098 98.7812 366.512 98.6641 365.779 98.6641C365.267 98.6641 364.798 98.7593 364.373 98.9497C363.963 99.1401 363.633 99.4038 363.384 99.7407C363.135 100.078 363.011 100.473 363.011 100.927C363.011 101.25 363.084 101.542 363.23 101.806C363.392 102.055 363.633 102.29 363.956 102.509C364.278 102.714 364.688 102.905 365.186 103.081C365.684 103.242 366.285 103.388 366.988 103.52C368.584 103.813 370.079 104.23 371.47 104.772C372.862 105.314 373.99 106.083 374.854 107.08C375.733 108.076 376.172 109.416 376.172 111.101C376.172 112.155 375.931 113.129 375.447 114.023C374.964 114.902 374.268 115.678 373.36 116.352C372.452 117.011 371.36 117.524 370.086 117.89C368.812 118.256 367.376 118.439 365.779 118.439C363.509 118.439 361.59 118.037 360.022 117.231C358.455 116.411 357.269 115.385 356.463 114.155C355.672 112.91 355.276 111.65 355.276 110.375H362.176C362.205 111.108 362.381 111.708 362.703 112.177C363.04 112.646 363.487 112.99 364.043 113.21C364.6 113.43 365.245 113.54 365.977 113.54C366.651 113.54 367.208 113.444 367.647 113.254C368.101 113.063 368.445 112.807 368.68 112.485C368.914 112.148 369.031 111.76 369.031 111.32ZM378.721 106.354V105.893C378.721 104.15 378.97 102.546 379.468 101.081C379.966 99.6016 380.699 98.3198 381.666 97.2358C382.632 96.1519 383.826 95.3096 385.247 94.709C386.668 94.0938 388.309 93.7861 390.169 93.7861C392.044 93.7861 393.692 94.0938 395.113 94.709C396.548 95.3096 397.75 96.1519 398.716 97.2358C399.683 98.3198 400.416 99.6016 400.914 101.081C401.412 102.546 401.661 104.15 401.661 105.893V106.354C401.661 108.083 401.412 109.687 400.914 111.167C400.416 112.631 399.683 113.913 398.716 115.012C397.75 116.096 396.556 116.938 395.135 117.539C393.714 118.139 392.073 118.439 390.213 118.439C388.353 118.439 386.705 118.139 385.269 117.539C383.833 116.938 382.632 116.096 381.666 115.012C380.699 113.913 379.966 112.631 379.468 111.167C378.97 109.687 378.721 108.083 378.721 106.354ZM386.126 105.893V106.354C386.126 107.248 386.192 108.083 386.324 108.859C386.456 109.636 386.675 110.317 386.983 110.903C387.291 111.474 387.708 111.921 388.235 112.243C388.763 112.565 389.422 112.727 390.213 112.727C390.989 112.727 391.634 112.565 392.146 112.243C392.674 111.921 393.091 111.474 393.399 110.903C393.707 110.317 393.926 109.636 394.058 108.859C394.19 108.083 394.256 107.248 394.256 106.354V105.893C394.256 105.029 394.19 104.216 394.058 103.454C393.926 102.678 393.707 101.997 393.399 101.411C393.091 100.81 392.674 100.341 392.146 100.004C391.619 99.6675 390.96 99.499 390.169 99.499C389.393 99.499 388.741 99.6675 388.213 100.004C387.701 100.341 387.291 100.81 386.983 101.411C386.675 101.997 386.456 102.678 386.324 103.454C386.192 104.216 386.126 105.029 386.126 105.893ZM412.427 98.7959V127.141H405.022V94.2256H411.922L412.427 98.7959ZM427.017 105.827V106.289C427.017 108.017 426.819 109.621 426.424 111.101C426.028 112.58 425.442 113.869 424.666 114.968C423.89 116.066 422.923 116.923 421.766 117.539C420.623 118.139 419.297 118.439 417.789 118.439C416.368 118.439 415.145 118.125 414.119 117.495C413.094 116.865 412.237 115.993 411.548 114.88C410.86 113.767 410.303 112.492 409.878 111.057C409.454 109.621 409.117 108.105 408.868 106.508V105.915C409.117 104.201 409.454 102.612 409.878 101.147C410.303 99.6675 410.86 98.3784 411.548 97.2798C412.237 96.1812 413.086 95.3242 414.097 94.709C415.123 94.0938 416.346 93.7861 417.767 93.7861C419.275 93.7861 420.601 94.0718 421.744 94.6431C422.901 95.2144 423.868 96.0347 424.644 97.104C425.435 98.1587 426.028 99.4258 426.424 100.905C426.819 102.385 427.017 104.025 427.017 105.827ZM419.612 106.289V105.827C419.612 104.904 419.546 104.062 419.415 103.3C419.283 102.524 419.07 101.85 418.777 101.279C418.499 100.708 418.125 100.268 417.657 99.9604C417.188 99.6528 416.609 99.499 415.921 99.499C415.13 99.499 414.463 99.6235 413.921 99.8726C413.394 100.107 412.969 100.473 412.647 100.971C412.339 101.455 412.12 102.062 411.988 102.795C411.871 103.513 411.819 104.355 411.834 105.322V107.124C411.805 108.237 411.915 109.218 412.164 110.068C412.413 110.903 412.845 111.555 413.46 112.023C414.075 112.492 414.91 112.727 415.965 112.727C416.668 112.727 417.254 112.565 417.723 112.243C418.191 111.906 418.565 111.445 418.843 110.859C419.122 110.258 419.319 109.57 419.437 108.793C419.554 108.017 419.612 107.182 419.612 106.289ZM437.564 84.25V118H430.159V84.25H437.564ZM436.685 105.3L434.949 105.344C434.949 103.674 435.154 102.136 435.564 100.729C435.975 99.3232 436.561 98.1001 437.322 97.0601C438.084 96.02 439 95.2144 440.069 94.6431C441.138 94.0718 442.325 93.7861 443.628 93.7861C444.8 93.7861 445.87 93.9546 446.836 94.2915C447.818 94.6284 448.66 95.1704 449.363 95.9175C450.081 96.6646 450.63 97.6387 451.011 98.8398C451.407 100.041 451.604 101.506 451.604 103.234V118H444.156V103.19C444.156 102.224 444.017 101.477 443.738 100.949C443.475 100.407 443.094 100.034 442.596 99.8286C442.098 99.6089 441.49 99.499 440.772 99.499C439.908 99.499 439.205 99.6455 438.663 99.9385C438.121 100.231 437.703 100.642 437.41 101.169C437.132 101.682 436.941 102.29 436.839 102.993C436.736 103.696 436.685 104.465 436.685 105.3ZM463.008 115.209L469.161 94.2256H477.115L467.557 121.538C467.352 122.138 467.081 122.783 466.744 123.471C466.407 124.174 465.945 124.841 465.359 125.471C464.773 126.101 464.019 126.613 463.096 127.009C462.188 127.404 461.06 127.602 459.712 127.602C458.995 127.602 458.467 127.565 458.13 127.492C457.808 127.434 457.31 127.324 456.636 127.163V121.867C456.827 121.867 456.988 121.867 457.12 121.867C457.266 121.867 457.427 121.867 457.603 121.867C458.394 121.867 459.024 121.787 459.493 121.625C459.976 121.464 460.342 121.23 460.591 120.922C460.855 120.615 461.06 120.241 461.207 119.802L463.008 115.209ZM461.448 94.2256L466.128 110.859L466.941 118.703H461.976L453.516 94.2256H461.448Z" fill="black"/>
<path d="M1363 15C1363 6.71573 1356.28 0 1348 0H1134V167H1348C1356.28 167 1363 160.284 1363 152V15Z" fill="#FF0000"/>
<path d="M1234.26 106.286H1262.74V111.857H1234.26V106.286ZM1239.96 117.429H1257.04V123H1239.96V117.429ZM1248.5 45C1240.95 45 1233.71 47.9349 1228.37 53.1592C1223.03 58.3834 1220.03 65.469 1220.03 72.8571C1219.84 76.9057 1220.63 80.9412 1222.34 84.6315C1224.05 88.3219 1226.64 91.5616 1229.88 94.0843C1232.73 96.675 1234.26 98.1514 1234.26 100.714H1239.96C1239.96 95.5886 1236.8 92.7193 1233.72 89.9614C1231.06 87.9676 1228.94 85.3658 1227.55 82.3838C1226.15 79.4019 1225.53 76.1308 1225.72 72.8571C1225.72 66.9466 1228.12 61.2781 1232.39 57.0988C1236.67 52.9194 1242.46 50.5714 1248.5 50.5714C1254.54 50.5714 1260.33 52.9194 1264.61 57.0988C1268.88 61.2781 1271.28 66.9466 1271.28 72.8571C1271.47 76.1333 1270.84 79.4059 1269.44 82.388C1268.04 85.3701 1265.92 87.9706 1263.25 89.9614C1260.2 92.7471 1257.04 95.5329 1257.04 100.714H1262.74C1262.74 98.1514 1264.25 96.675 1267.12 94.0564C1270.36 91.5381 1272.94 88.3031 1274.66 84.6176C1276.37 80.9321 1277.16 76.9014 1276.97 72.8571C1276.97 69.1989 1276.24 65.5765 1274.81 62.1967C1273.37 58.8169 1271.28 55.7459 1268.63 53.1592C1265.99 50.5724 1262.85 48.5205 1259.4 47.1205C1255.94 45.7205 1252.24 45 1248.5 45Z" fill="white"/>
</svg>
